<?xml version="1.0" standalone="no"?>
<!DOCTYPE svg PUBLIC "-//W3C//DTD SVG 20010904//EN"
 "http://www.w3.org/TR/2001/REC-SVG-20010904/DTD/svg10.dtd">
<svg version="1.0" xmlns="http://www.w3.org/2000/svg"
 width="497.000000pt" height="485.000000pt" viewBox="0 0 497.000000 485.000000"
 preserveAspectRatio="xMidYMid meet">
<metadata>
Created by potrace 1.10, written by Peter Selinger 2001-2011
</metadata>
<g transform="translate(0.000000,485.000000) scale(0.100000,-0.100000)"
fill="#000000" stroke="none">
<path d="M460 4788 c0 -74 8 -72 16 5 4 39 3 57 -5 57 -7 0 -11 -23 -11 -62z"/>
<path d="M596 4791 c-50 -64 -60 -88 -22 -52 33 31 89 111 78 111 -5 0 -30
-27 -56 -59z"/>
<path d="M1893 4785 c-143 -159 -169 -253 -142 -516 8 -86 65 -394 86 -464 3
-13 2 -17 -4 -10 -6 6 -22 60 -37 120 -48 193 -139 350 -281 483 -115 107
-183 152 -291 191 -132 48 -226 72 -222 58 2 -7 20 -64 40 -127 20 -63 49
-155 63 -205 44 -146 161 -356 215 -385 19 -10 18 -13 -21 -62 -49 -62 -76
-114 -100 -188 -18 -58 -24 -55 -33 23 -9 76 -72 254 -124 349 -55 102 -140
214 -152 202 -15 -16 -32 -185 -28 -276 l4 -88 -30 29 c-17 16 -71 51 -121 77
-49 26 -109 60 -133 76 -24 17 -46 28 -48 25 -10 -10 50 -145 106 -239 61
-100 70 -130 27 -90 -57 53 -192 83 -372 81 -152 -2 -180 -20 -85 -58 121 -46
192 -93 270 -175 134 -141 194 -202 224 -224 44 -33 25 -37 -34 -7 -68 35
-165 55 -266 55 -78 0 -144 -14 -144 -30 0 -7 163 -72 212 -84 14 -3 46 -15
71 -25 36 -16 45 -25 49 -49 4 -29 4 -30 -53 -35 -32 -3 -83 -16 -113 -30
-103 -48 -166 -113 -79 -81 51 18 154 17 250 -1 43 -9 103 -20 133 -25 30 -5
82 -22 117 -37 l62 -27 -32 -11 c-25 -8 -33 -16 -35 -40 -6 -46 18 -104 50
-123 23 -13 28 -23 28 -55 0 -29 5 -40 18 -44 20 -5 31 -66 93 -478 17 -115
24 -142 42 -155 27 -20 240 -140 249 -140 3 0 2 12 -2 28 -20 60 -65 332 -56
329 11 -4 75 -302 76 -348 0 -20 8 -30 30 -39 41 -17 50 -6 11 15 -41 21 -40
38 1 21 17 -8 35 -24 40 -36 18 -50 18 -5 -1 133 -11 80 -23 157 -27 171 -5
20 -2 26 10 26 9 0 16 -3 16 -7 0 -5 9 -69 20 -144 11 -75 21 -151 22 -169 2
-33 24 -49 65 -48 10 0 113 -3 228 -6 319 -9 1437 -17 1461 -10 28 7 89 188
110 329 9 55 36 179 59 275 78 314 141 617 130 628 -7 7 -396 -43 -920 -118
-610 -88 -1141 -165 -1225 -179 -36 -6 -82 -11 -102 -11 -21 0 -38 -5 -38 -11
0 -11 51 -7 210 17 52 8 219 33 370 54 151 22 430 62 620 90 629 93 1062 151
1069 144 2 -2 2 -6 0 -8 -2 -1 -119 -20 -259 -40 -140 -20 -385 -57 -545 -81
-159 -25 -375 -56 -480 -70 -175 -23 -393 -55 -720 -104 -71 -11 -161 -22
-200 -26 l-70 -6 -22 36 c-16 25 -23 52 -23 84 l0 48 148 6 c94 3 246 20 422
47 798 119 1459 200 1645 202 61 0 114 3 119 6 14 8 -23 20 -62 21 -29 1 -32
3 -22 20 38 72 -13 117 -175 155 -146 35 -170 50 -62 40 49 -4 86 -3 100 4 12
5 45 17 74 26 49 15 62 15 195 -4 78 -11 144 -20 147 -20 2 0 -45 -47 -104
-105 -60 -57 -106 -107 -102 -111 10 -11 44 17 166 135 63 61 115 110 116 108
4 -5 25 -96 25 -108 0 -7 -8 -6 -25 5 -24 16 -25 15 -70 -32 -92 -100 -115
-137 -129 -214 -7 -40 -51 -246 -98 -458 -47 -212 -108 -485 -134 -608 l-49
-222 -75 5 c-89 6 -703 17 -1165 21 -565 5 -635 19 -917 187 -47 29 -91 60
-97 69 -10 17 -82 416 -96 541 -6 50 -19 77 -30 66 -3 -4 61 -402 70 -430 3
-9 12 -53 20 -99 18 -101 28 -113 153 -187 128 -75 248 -130 304 -138 46 -7
46 -7 53 -52 12 -79 7 -198 -8 -236 -23 -53 -86 -116 -211 -211 -115 -88 -214
-181 -204 -192 11 -10 218 117 316 195 127 100 158 139 189 239 21 68 25 96
21 160 l-4 77 57 -3 c57 -4 58 -5 128 -77 142 -146 157 -280 44 -405 -52 -58
-245 -190 -277 -190 -14 0 -100 -11 -193 -24 -92 -13 -210 -30 -261 -37 -123
-16 -140 -33 -105 -106 13 -27 31 -42 77 -64 34 -16 66 -29 72 -29 9 0 9 -11
2 -39 -15 -59 11 -138 62 -189 68 -68 182 -92 247 -52 44 26 84 91 90 143 l5
44 99 13 c99 12 99 12 118 -11 11 -13 17 -28 14 -33 -3 -4 -9 -3 -12 3 -11 17
-50 -25 -77 -83 -31 -66 -31 -128 -1 -181 l23 -40 -245 2 c-191 2 -258 6 -301
18 -30 9 -71 20 -90 24 -59 14 -193 62 -235 84 -87 46 -135 79 -128 91 3 6 3
8 -2 4 -10 -10 -45 35 -45 59 0 41 15 64 66 103 29 23 59 43 66 44 7 1 31 12
53 23 22 12 59 26 83 32 23 7 42 16 42 21 0 15 -13 12 -83 -14 -179 -67 -268
-153 -243 -234 23 -71 186 -161 412 -228 143 -43 146 -44 79 -38 -110 11 -259
11 -272 1 -10 -7 -13 -4 -13 12 0 27 -12 27 -28 0 -13 -20 -14 -20 -33 -3 -10
9 -19 13 -19 7 0 -7 -80 -9 -236 -8 -129 2 -251 -1 -270 -5 -41 -9 -42 -5 -7
32 14 15 23 31 19 35 -5 5 -26 -12 -48 -37 l-40 -45 7 38 c3 21 9 46 11 55 5
14 2 13 -10 -2 -9 -11 -16 -30 -16 -42 0 -13 -4 -25 -9 -28 -5 -3 -11 23 -13
59 -3 58 -12 86 -22 74 -2 -2 0 -30 4 -63 5 -49 4 -55 -7 -40 -7 10 -13 24
-13 31 0 7 -4 13 -10 13 -6 0 -6 -9 0 -26 6 -14 10 -34 10 -45 0 -15 -4 -18
-18 -11 -9 4 -32 7 -49 6 -18 -1 -44 -2 -58 -3 -14 0 -25 -5 -25 -11 0 -7 757
-10 2250 -10 l2250 0 0 1409 0 1409 -30 26 c-52 43 -68 20 -73 -102 -2 -48 -4
-52 -22 -47 -11 3 -34 8 -51 11 l-31 6 4 167 c4 150 7 175 34 256 44 136 59
219 59 335 0 101 1 104 18 84 9 -11 34 -33 55 -49 l37 -27 0 456 c0 358 -3
456 -12 456 -10 0 -12 -90 -10 -425 2 -466 5 -451 -56 -400 l-30 25 -60 -119
c-62 -122 -98 -221 -81 -221 5 0 9 8 9 17 0 9 2 14 5 11 3 -3 1 -27 -6 -54
-14 -61 -14 -151 0 -184 8 -19 9 -10 4 41 -7 88 19 209 83 374 l23 60 1 -45
c0 -42 -13 -114 -69 -370 -15 -72 -23 -165 -32 -387 -12 -299 -9 -404 17 -623
26 -224 24 -215 69 -324 7 -15 5 -17 -11 -12 -10 3 -36 6 -57 8 -21 1 -41 6
-43 10 -3 5 -10 6 -15 3 -5 -4 -7 18 -4 52 12 133 12 144 1 140 -6 -2 -9 -20
-8 -41 3 -26 0 -36 -7 -32 -6 4 -9 1 -7 -6 12 -38 16 -69 8 -64 -5 3 -7 -6 -4
-19 4 -22 1 -24 -24 -19 -16 3 -30 9 -32 15 -2 5 -8 9 -13 9 -6 0 -7 -5 -4
-10 3 -6 -1 -13 -9 -16 -9 -3 -16 -11 -16 -16 0 -10 17 -8 54 7 16 7 17 5 11
-25 -5 -23 -4 -30 4 -26 6 4 11 13 11 21 0 7 7 15 15 19 12 4 15 -3 17 -32 1
-37 1 -37 5 -4 4 27 8 31 26 27 36 -9 152 -23 156 -19 2 1 -6 15 -17 29 -19
24 -46 86 -67 153 -7 23 -6 23 42 17 121 -16 125 -16 118 -32 -3 -9 -6 -78 -6
-154 0 -137 0 -139 -22 -139 -12 0 -112 7 -222 15 -219 16 -324 18 -220 5 33
-4 138 -13 234 -20 96 -6 187 -14 202 -17 l29 -5 0 -339 0 -338 -30 -30 c-17
-16 -30 -35 -30 -42 0 -7 15 2 34 20 39 38 45 17 6 -24 -13 -14 -18 -25 -12
-25 6 0 14 5 17 10 16 26 20 1 17 -111 l-3 -121 -32 5 c-18 4 -97 22 -177 41
-80 20 -156 36 -170 35 -14 0 31 -14 100 -30 69 -16 160 -39 202 -51 l77 -21
1 -269 c0 -147 -3 -268 -7 -269 -5 0 -210 -2 -458 -3 -247 -2 -470 -6 -495
-10 -53 -8 -42 -1 75 44 359 139 305 349 -125 485 -113 35 -240 64 -240 55 0
-10 26 -20 51 -20 10 0 19 -4 19 -8 0 -4 15 -9 33 -10 31 -3 200 -53 235 -71
9 -4 38 -18 63 -29 69 -30 167 -116 177 -155 25 -94 -57 -170 -277 -253 l-66
-25 -690 -1 c-406 0 -700 -4 -715 -10 l-25 -9 22 23 c58 61 69 162 28 245 -28
55 -53 76 -112 96 -20 7 -38 17 -40 22 -2 6 67 20 171 35 l175 25 26 -32 c37
-47 117 -69 188 -52 57 13 127 73 127 108 0 15 10 20 53 26 28 4 138 20 242
36 259 40 283 43 265 30 -8 -6 -30 -11 -48 -11 -36 0 -52 -21 -33 -44 10 -12
3 -23 -34 -57 -56 -52 -75 -94 -75 -166 0 -126 91 -222 213 -223 57 0 98 19
150 69 54 51 67 80 67 153 0 106 -62 206 -138 223 -16 3 -40 20 -53 38 -24 32
-24 33 -22 266 l3 235 -26 44 c-36 62 -172 194 -225 220 -25 12 -66 25 -92 28
-26 4 -47 9 -47 13 0 8 271 -4 394 -18 55 -6 103 -8 107 -4 12 12 52 188 129
563 37 184 84 405 103 490 19 85 38 174 42 198 4 23 10 42 14 42 8 0 27 -26
44 -60 9 -17 21 -25 39 -25 14 -1 33 -6 41 -13 12 -10 17 -8 31 12 9 14 16 30
16 36 0 18 55 11 78 -10 30 -28 35 -25 17 10 -17 32 -51 46 -90 36 -18 -5 -26
-15 -31 -43 -7 -37 -7 -37 -22 -15 -15 22 -42 30 -42 12 0 -5 -4 -10 -10 -10
-5 0 -10 11 -10 23 0 25 -28 57 -48 57 -26 0 -11 58 28 111 23 30 55 73 72 96
22 30 35 40 43 33 7 -6 32 -13 57 -16 50 -7 46 -11 114 94 41 64 44 109 12
147 -22 25 -33 27 -282 56 -142 16 -279 34 -303 41 -24 6 -63 8 -86 5 -40 -6
-42 -4 -44 20 -1 18 10 35 35 57 31 27 41 31 86 28 85 -6 152 26 248 117 l82
78 32 -13 c50 -21 136 -28 178 -14 20 6 36 15 36 19 0 5 -37 8 -82 8 -80 -1
-158 5 -158 11 0 2 11 24 25 50 52 97 36 112 -114 112 -185 -1 -239 -21 -301
-112 -18 -26 -37 -48 -42 -48 -15 0 4 54 33 91 39 50 79 132 79 162 0 14 16
56 36 94 31 57 81 197 101 281 7 28 -13 53 -35 45 -9 -3 -73 -30 -142 -60
-100 -44 -136 -65 -179 -106 -86 -83 -111 -129 -111 -204 0 -49 -3 -63 -15
-63 -19 0 -82 -56 -90 -81 -14 -44 -25 -14 -24 69 l0 87 42 30 c61 44 81 86
81 164 0 82 -25 139 -101 239 -60 79 -106 122 -130 122 -9 0 -3 -10 16 -26 39
-33 158 -195 178 -242 20 -49 20 -139 0 -179 -19 -35 -77 -82 -77 -62 0 8 -3
9 -9 3 -6 -5 -14 -38 -20 -74 l-10 -65 3 55 c4 76 25 199 42 235 7 17 23 45
34 63 31 46 10 39 -23 -8 l-29 -41 -19 25 c-24 31 -24 39 3 103 17 41 19 56
10 65 -9 9 -12 8 -12 -8 0 -28 -29 -104 -30 -79 -1 20 -6 35 -55 155 -26 65
-26 65 -20 20 3 -25 15 -63 26 -85 12 -21 24 -61 29 -88 l7 -48 -26 6 c-14 3
-34 8 -43 11 -10 3 -18 1 -18 -4 0 -12 24 -22 52 -22 11 0 33 -14 50 -31 31
-30 31 -30 24 -111 -9 -114 -13 -117 -68 -69 -72 64 -78 88 -69 292 5 96 12
182 16 192 4 9 3 17 -3 17 -18 0 -22 -30 -33 -214 -7 -118 -7 -190 -1 -206 17
-43 72 -110 106 -131 l33 -19 6 -113 c3 -61 3 -114 2 -116 -2 -2 -11 23 -21
55 -17 63 -44 114 -79 154 -13 14 -28 42 -34 62 -13 39 -128 238 -157 269 -10
11 -38 20 -73 24 -31 4 -80 14 -108 22 -103 28 -120 -2 -74 -133 17 -49 31
-89 31 -90 0 -1 -29 -19 -65 -40 -36 -21 -92 -61 -124 -90 l-57 -52 0 121 c-1
111 -5 139 -46 305 -25 101 -48 186 -52 189 -14 14 -14 -6 -1 -62 14 -60 13
-60 -13 -87 -14 -16 -21 -28 -15 -28 6 0 16 7 23 15 18 22 26 12 39 -55 7 -33
18 -78 26 -99 l13 -39 -54 -36 c-29 -20 -58 -36 -64 -36 -16 0 -12 295 5 360
8 30 12 56 10 59 -3 2 -5 -1 -5 -7 0 -6 -7 -18 -17 -27 -10 -10 -19 -43 -24
-88 -9 -86 -5 -419 5 -436 11 -17 0 -13 -46 18 -24 16 -62 35 -85 42 -35 11
-42 18 -46 44 -3 16 -3 33 -1 37 5 8 88 -27 126 -53 32 -23 45 -24 27 -3 -13
16 -126 78 -144 79 -15 0 -6 94 13 137 l17 38 53 -25 c28 -13 52 -20 52 -16 0
5 -23 18 -51 30 l-50 22 19 31 c11 17 47 64 81 104 34 40 61 76 61 79 0 17
-25 -3 -77 -60z m-685 -210 c39 -13 42 -21 28 -84 -5 -21 -5 -31 2 -27 5 3 12
24 16 46 3 22 10 40 15 40 19 0 158 -101 204 -148 41 -41 47 -53 39 -68 -18
-33 -33 -137 -22 -148 7 -7 10 0 10 20 0 39 28 134 40 134 11 0 110 -132 110
-147 0 -7 -5 -13 -12 -13 -9 0 -9 -3 -1 -11 8 -8 8 -20 -2 -43 -19 -47 -28
-106 -15 -106 5 0 10 8 10 18 0 9 8 46 19 82 l18 65 33 -70 c41 -87 58 -137
53 -151 -2 -7 5 -27 15 -46 32 -57 71 -198 77 -283 3 -44 8 -90 11 -101 3 -19
-2 -22 -32 -26 -27 -3 -37 0 -40 11 -3 9 -24 54 -47 100 -31 62 -53 92 -84
115 -23 17 -42 34 -43 37 0 4 14 12 30 19 17 7 28 15 25 18 -2 3 -22 -3 -44
-12 l-39 -18 -61 41 c-34 23 -61 45 -61 49 1 4 19 21 40 37 21 17 39 33 40 38
1 16 -19 5 -58 -35 -36 -35 -43 -39 -57 -28 -10 8 -14 22 -11 34 2 12 8 33 11
49 9 35 -2 34 -43 -4 -32 -30 -34 -30 -47 -13 -8 11 -15 22 -15 25 0 8 122 79
137 79 7 0 13 5 13 10 0 6 -2 10 -5 10 -12 0 -92 -44 -123 -67 -18 -14 -35
-23 -36 -22 -2 2 -17 25 -34 50 l-30 45 64 24 c35 14 64 28 64 32 0 12 -4 11
-72 -17 -48 -20 -64 -22 -71 -13 -8 13 -87 176 -87 181 0 2 37 9 81 17 57 9
77 15 66 22 -10 5 -33 4 -59 -3 -88 -22 -89 -22 -115 55 -13 38 -22 70 -21 71
2 1 19 7 38 13 l35 11 -40 -5 -40 -4 -24 72 c-12 40 -25 78 -28 85 -4 11 84
-9 175 -42z m1212 40 c36 -8 83 -18 105 -22 57 -11 72 -46 56 -128 -13 -63
-22 -75 -58 -75 -16 0 -20 4 -16 20 5 20 7 20 24 4 21 -19 24 -13 8 17 -5 11
-15 48 -20 82 -6 34 -15 67 -21 72 -10 10 -4 -52 9 -99 8 -27 -55 22 -112 88
-24 28 -46 48 -49 45 -9 -9 84 -123 120 -148 22 -15 30 -28 28 -44 -4 -36 -52
-142 -62 -140 -6 1 -8 -6 -5 -16 5 -21 -43 -133 -88 -203 l-31 -47 -56 37
c-31 20 -59 37 -61 39 -2 1 11 20 29 43 l32 40 34 -21 c19 -11 40 -19 47 -16
6 2 -7 13 -30 23 -24 10 -43 21 -43 25 0 3 49 56 108 117 60 62 106 112 103
112 -3 0 -26 -16 -50 -35 -34 -27 -47 -33 -54 -23 -7 10 -8 9 -4 -3 3 -10 -21
-42 -70 -90 -41 -41 -84 -86 -95 -101 -10 -16 -22 -28 -26 -28 -4 0 -13 19
-20 41 -16 50 -11 56 99 139 47 35 104 67 154 85 44 16 74 30 67 33 -7 2 -27
-1 -44 -7 -47 -17 -54 -14 -65 24 l-11 36 34 -7 c21 -4 34 -2 34 4 0 6 -17 12
-37 14 -37 3 -38 5 -52 56 -12 46 -12 55 0 63 18 11 13 12 89 -6z m1070 -4 c0
-11 -5 -23 -10 -26 -6 -4 -8 -10 -5 -15 3 -5 1 -11 -5 -15 -6 -4 -8 -10 -5
-15 6 -10 -42 -135 -85 -220 -17 -33 -30 -68 -30 -79 0 -28 -47 -131 -59 -131
-5 0 -12 4 -16 9 -3 5 -22 15 -43 22 -47 15 -102 50 -102 65 0 6 24 34 53 61
52 49 65 55 155 68 23 4 40 10 37 14 -5 8 -97 -3 -115 -14 -5 -3 -10 -1 -10 4
0 6 3 11 8 11 10 0 108 73 145 108 29 27 63 82 51 82 -4 0 -1 7 6 15 7 9 8 15
2 15 -5 0 -21 -17 -33 -39 -24 -39 -99 -111 -99 -94 0 4 9 33 20 62 11 30 18
57 15 59 -8 8 -45 -81 -45 -108 0 -17 -14 -36 -40 -57 -21 -18 -41 -33 -44
-33 -2 0 -1 15 4 33 16 64 21 109 12 103 -6 -3 -16 -39 -22 -79 -12 -67 -39
-124 -54 -110 -12 12 -6 114 8 142 17 32 90 101 109 101 6 0 50 18 97 40 47
22 88 40 93 40 4 0 7 -9 7 -19z m-799 -235 c15 -33 27 -61 25 -63 -2 -2 -20 7
-39 19 -36 23 -46 38 -27 38 6 0 10 10 10 23 0 22 0 22 -13 -2 -15 -30 -28
-35 -49 -19 -15 12 -15 18 0 75 l17 63 23 -38 c13 -20 37 -64 53 -96z m-599
53 c2 -23 0 -78 -5 -123 -8 -79 -26 -129 -80 -221 -12 -22 -24 -58 -26 -80 -2
-37 -15 -65 -25 -54 -2 2 0 29 5 59 4 30 8 99 8 153 1 74 4 97 14 97 20 0 97
58 97 72 0 7 -5 6 -12 -4 -13 -15 -80 -58 -92 -58 -3 0 -6 32 -6 70 0 61 2 70
18 70 10 0 33 13 52 30 19 16 38 29 41 30 4 0 9 -19 11 -41z m1060 -61 c-3
-67 -9 -91 -29 -121 -13 -22 -27 -36 -30 -33 -3 3 -11 33 -18 68 l-13 63 45
52 c24 29 46 53 47 53 2 0 1 -37 -2 -82z m-518 -36 c36 -17 85 -49 110 -72 45
-42 46 -44 46 -104 l-1 -61 -28 32 c-16 17 -36 56 -45 87 -9 30 -20 57 -25 60
-10 6 2 -54 19 -98 9 -26 8 -27 -12 -20 -30 9 -83 50 -108 83 -14 19 -19 22
-20 10 0 -9 -6 -22 -14 -28 -12 -10 -15 -6 -21 18 -3 17 -17 46 -30 66 -50 73
6 85 129 27z m-759 -36 l60 -33 1 -136 c1 -76 0 -137 -3 -137 -2 0 -20 7 -39
15 -25 10 -41 12 -53 5 -14 -8 -14 -9 3 -10 11 0 35 -5 53 -12 33 -12 33 -12
33 -80 0 -37 -2 -68 -5 -68 -2 0 -22 9 -44 21 -38 19 -40 23 -51 92 -6 40 -15
85 -21 101 -13 41 -11 48 9 43 9 -3 35 -8 57 -11 55 -9 21 12 -37 22 -48 8
-51 16 -64 156 l-7 78 24 -7 c13 -4 51 -22 84 -39z m633 -28 l20 -53 -34 -3
c-19 -2 -32 -7 -29 -13 8 -12 71 -12 94 1 13 7 27 3 55 -17 48 -32 36 -48 -37
-48 -45 0 -60 5 -97 34 -25 19 -47 36 -49 37 -6 5 42 114 50 114 4 0 16 -24
27 -52z m-1563 -97 c48 -67 137 -264 175 -392 26 -85 33 -132 40 -260 11 -184
30 -317 65 -454 14 -55 25 -101 25 -104 0 -2 -39 -1 -86 1 -72 4 -88 8 -96 24
-6 10 -39 47 -73 80 -50 49 -61 64 -52 75 10 10 9 10 -6 0 -15 -12 -20 -11
-35 1 -22 20 -86 52 -136 68 -22 7 -72 34 -111 59 -76 50 -107 63 -252 108
-51 15 -93 31 -93 36 0 12 99 8 200 -8 186 -30 372 -148 522 -332 33 -41 62
-72 65 -69 8 7 -106 156 -165 215 -49 50 -53 56 -43 79 7 13 9 27 7 30 -3 2
-11 -7 -17 -22 -7 -14 -15 -26 -18 -26 -16 0 -102 81 -248 234 l-161 169 21
18 c12 10 18 18 13 19 -5 0 -17 -7 -26 -15 -16 -14 -22 -12 -69 19 -28 19 -85
48 -126 63 -41 15 -75 32 -75 37 0 9 160 1 285 -15 50 -7 97 -20 125 -35 64
-35 143 -96 155 -120 24 -46 112 -194 155 -259 63 -94 210 -350 210 -364 0 -6
4 -11 10 -11 15 0 -14 65 -89 202 -72 131 -239 413 -274 463 -12 16 -42 68
-68 115 -25 47 -67 121 -93 165 -25 44 -46 85 -46 92 0 6 26 -5 58 -26 31 -21
89 -58 127 -84 94 -61 145 -116 200 -212 52 -91 80 -173 135 -397 22 -87 48
-179 59 -205 11 -27 22 -55 25 -63 12 -31 -4 49 -33 165 -16 66 -42 172 -57
235 -34 145 -67 225 -132 325 l-52 79 0 151 c0 131 5 195 15 195 2 0 20 -22
40 -49z m1200 -6 l17 -44 -41 -65 c-22 -36 -41 -69 -41 -73 0 -5 -5 -15 -10
-23 -7 -12 -13 -11 -34 10 -32 29 -35 15 -4 -17 l22 -23 -22 -88 c-12 -48 -29
-123 -37 -167 -8 -44 -17 -90 -20 -102 -3 -13 -1 -23 5 -23 5 0 10 7 10 15 0
23 70 304 83 334 24 55 100 181 110 181 6 0 34 -16 63 -36 l53 -37 -39 -56
c-21 -32 -70 -91 -109 -132 -39 -41 -73 -82 -76 -91 -4 -11 -12 -15 -23 -12
-13 5 -14 4 -4 -4 12 -8 12 -14 0 -38 -8 -16 -23 -55 -33 -86 -13 -39 -25 -58
-39 -62 -11 -3 -21 -4 -23 -2 -1 1 6 72 17 157 11 85 20 179 20 211 0 72 36
180 87 258 21 33 41 60 45 60 3 0 14 -20 23 -45z m960 16 c74 -34 96 -68 110
-174 12 -86 -40 -213 -118 -288 -22 -21 -42 -47 -43 -56 -1 -10 -10 -44 -19
-77 -25 -88 -13 -76 18 18 15 46 34 90 42 96 20 17 19 7 -5 -40 -11 -22 -31
-80 -44 -128 -25 -94 -59 -171 -69 -156 -6 10 23 170 42 232 6 19 15 40 22 48
9 11 9 14 0 14 -8 0 -10 8 -6 21 4 11 8 54 9 95 3 86 14 102 87 135 26 12 46
26 43 30 -3 5 -30 -3 -61 -16 -31 -14 -58 -23 -61 -20 -3 3 0 40 6 82 11 78
16 88 68 119 11 7 16 15 12 19 -4 4 -20 -2 -36 -14 l-29 -20 3 39 c3 53 -12
51 -21 -1 -5 -29 -10 -38 -16 -28 -5 8 -9 24 -9 37 0 12 -4 22 -10 22 -5 0 -7
-7 -3 -16 5 -13 2 -15 -18 -9 -21 7 -20 4 9 -24 34 -30 34 -32 27 -93 -4 -35
-9 -65 -10 -67 -2 -1 -20 9 -40 24 -19 15 -39 25 -43 21 -4 -4 1 -12 11 -17 9
-6 29 -21 44 -33 26 -22 27 -29 28 -108 l0 -83 -42 44 c-37 39 -46 43 -75 38
l-34 -5 -2 54 c-4 95 42 208 107 267 46 42 68 45 126 18z m-615 -75 c41 -64
45 -79 42 -146 l-2 -35 -43 50 c-23 27 -55 62 -70 76 l-29 27 26 40 c15 24 22
44 16 47 -6 3 -10 1 -10 -6 0 -14 -41 -82 -46 -76 -2 2 8 27 22 56 29 62 32
61 94 -33z m349 -5 c33 -101 26 -130 -16 -68 -18 26 -22 45 -20 90 1 31 5 53
8 49 4 -4 16 -36 28 -71z m58 7 c-2 -13 -4 -3 -4 22 0 25 2 35 4 23 2 -13 2
-33 0 -45z m-377 12 c0 -5 8 -6 18 -4 19 5 61 -20 50 -31 -3 -4 -19 1 -35 11
-24 15 -23 12 10 -23 22 -23 56 -48 77 -58 l37 -17 -15 -51 c-8 -29 -18 -57
-22 -62 -5 -6 -11 -36 -14 -68 -7 -79 -14 -86 -42 -40 -13 22 -42 52 -66 68
-44 28 -115 102 -106 110 9 9 72 -15 93 -35 13 -12 30 -39 40 -61 18 -38 29
-45 58 -33 13 5 13 13 2 60 -7 29 -17 59 -23 66 -5 7 -13 32 -17 55 -4 25 -21
61 -41 87 -19 25 -28 43 -19 40 8 -3 15 -10 15 -14z m204 0 c17 -10 51 -55 77
-99 68 -115 52 -120 -89 -28 -124 80 -137 101 -79 130 42 21 56 21 91 -3z
m531 -6 c37 -15 37 -15 19 -37 -10 -12 -19 -23 -20 -25 -1 -2 -10 15 -21 38
-11 22 -19 40 -18 40 1 0 19 -7 40 -16z m465 7 c0 -3 -14 -15 -32 -25 -17 -11
-48 -33 -67 -51 -37 -32 -103 -75 -115 -75 -11 0 4 41 30 82 13 20 34 38 46
41 20 4 20 4 -4 6 -22 1 -34 -8 -58 -41 -16 -22 -30 -53 -30 -67 0 -22 -10
-33 -56 -59 -31 -18 -58 -31 -60 -29 -8 8 25 119 46 153 22 36 22 38 3 21 -24
-21 -58 -95 -68 -149 -6 -29 -18 -45 -61 -77 l-53 -40 6 47 c8 61 98 201 150
233 30 19 56 23 152 28 64 4 128 7 144 8 15 1 27 -2 27 -6z m-1 -43 c-27 -56
-98 -147 -149 -196 -76 -70 -147 -96 -238 -86 -44 4 -63 3 -58 -4 3 -5 -10
-26 -29 -45 -24 -24 -35 -44 -35 -64 0 -29 -43 -83 -56 -70 -8 7 68 143 99
177 12 14 41 35 63 47 38 21 42 21 93 7 29 -9 55 -14 58 -11 12 12 -10 27 -41
27 -53 0 -50 11 11 46 66 38 82 40 123 19 17 -9 30 -11 30 -5 0 5 -4 10 -8 10
-5 0 -16 6 -26 13 -16 12 -15 15 23 40 22 15 48 27 57 27 10 0 14 5 11 15 -4
9 8 26 31 45 44 36 57 38 41 8z m-1308 -45 c19 -21 41 -46 48 -55 12 -17 11
-17 -20 -12 -19 4 -51 16 -71 27 -36 20 -37 21 -22 49 8 15 18 28 22 28 4 0
24 -17 43 -37z m96 -210 c61 -44 93 -86 93 -122 0 -31 0 -31 -65 38 -77 81
-102 93 -181 89 l-59 -3 -3 -41 c-3 -37 1 -44 43 -83 45 -41 48 -42 94 -36
l48 6 33 -51 c18 -28 30 -53 28 -56 -7 -6 -38 6 -38 15 0 45 -98 62 -303 53
-81 -4 -147 -6 -147 -4 0 24 59 108 131 187 50 55 102 119 117 143 l27 43 70
-74 c39 -40 89 -87 112 -104z m206 110 c-7 -44 -8 -47 -21 -39 -11 7 6 76 19
76 4 0 5 -17 2 -37z m-138 -27 c10 -25 15 -50 13 -57 -7 -20 -56 70 -51 92 7
26 19 16 38 -35z m-1185 7 c-49 -95 -94 -477 -95 -796 0 -98 -4 -157 -10 -157
-15 0 -73 269 -85 389 -15 150 -12 207 10 290 27 95 56 150 126 239 63 79 85
93 54 35z m1372 20 c29 -26 23 -50 -10 -45 -25 3 -28 7 -24 33 5 34 9 35 34
12z m-786 -8 c3 -8 -3 -86 -15 -172 -12 -87 -21 -175 -21 -195 0 -36 -1 -38
-33 -38 l-34 0 -6 128 c-4 70 -10 146 -13 170 l-7 43 37 -18 37 -17 -3 -108
c-2 -59 -1 -108 2 -108 6 0 33 238 34 298 1 33 13 43 22 17z m878 -21 c3 -9 5
-43 5 -77 l-2 -62 -7 55 c-4 30 -10 65 -14 78 -8 25 8 31 18 6z m-34 -29 c7
-14 10 -28 7 -32 -8 -8 -36 26 -37 45 0 20 16 14 30 -13z m406 -39 c-8 -54
-84 -212 -128 -266 -33 -43 -48 -47 -27 -8 7 12 14 28 15 35 6 34 37 112 55
138 19 28 20 28 13 5 -3 -14 -13 -38 -22 -54 -19 -39 -35 -93 -22 -80 12 12
110 255 110 273 0 8 3 12 6 8 4 -3 3 -26 0 -51z m-528 36 c17 -11 27 -77 14
-86 -20 -12 -60 15 -64 44 -2 15 -2 32 0 38 4 14 31 15 50 4z m-1186 -79 c124
-83 182 -134 204 -175 l14 -27 -57 -11 c-32 -7 -63 -15 -71 -17 -10 -4 -11 4
-6 36 4 23 3 41 -2 41 -13 0 -49 -25 -109 -76 -39 -33 -61 -43 -102 -49 l-52
-7 5 39 c7 55 58 323 61 323 1 0 53 -34 115 -77z m1277 50 c44 -38 65 -114 50
-185 -14 -61 -5 -75 12 -19 7 23 15 37 19 31 4 -7 1 -28 -6 -48 -9 -26 -11
-65 -7 -129 5 -72 3 -93 -7 -93 -10 0 -11 14 -7 60 4 35 3 62 -3 65 -6 4 -10
-19 -10 -59 0 -54 -3 -66 -16 -66 -13 0 -15 8 -10 38 6 40 12 106 22 217 4 55
3 67 -7 58 -8 -8 -11 -36 -10 -75 1 -35 -3 -75 -8 -88 -9 -20 -10 -10 -8 47 1
49 -1 69 -8 63 -7 -5 -10 -40 -8 -85 2 -44 -1 -75 -7 -75 -6 0 -10 11 -10 24
0 14 -4 28 -10 31 -6 4 -8 -5 -5 -22 13 -87 14 -124 3 -121 -15 5 -16 17 -22
200 -5 154 -5 157 20 193 14 21 23 40 20 43 -3 2 -8 -3 -12 -12 -9 -24 -24
-19 -24 9 0 32 18 32 59 -2z m161 -29 c56 -33 80 -125 43 -166 -24 -27 -51
-22 -90 17 -32 32 -35 40 -29 73 3 20 6 49 6 65 0 32 26 36 70 11z m-532 -29
c2 -11 9 -24 14 -30 7 -7 9 -1 4 18 -8 33 0 34 31 5 16 -15 23 -33 23 -61 l0
-39 -26 32 c-15 17 -29 29 -32 26 -3 -3 -20 8 -39 24 -18 17 -40 30 -48 30 -7
0 -17 5 -20 11 -5 7 9 9 41 7 40 -2 49 -7 52 -23z m-11 -60 c50 -35 53 -45 15
-45 -29 0 -112 52 -112 69 0 5 -3 17 -6 26 -6 15 -4 15 27 -2 19 -10 53 -31
76 -48z m298 -22 c0 -32 -4 -57 -8 -55 -4 1 -19 2 -34 3 l-28 1 25 8 25 8 -27
1 c-16 1 -28 -3 -28 -7 0 -16 24 -32 47 -32 27 0 30 -5 37 -85 4 -54 3 -58
-10 -41 -8 11 -14 28 -14 37 0 10 -4 19 -9 21 -5 2 -25 25 -45 51 -25 33 -34
53 -28 60 5 7 15 35 21 64 l13 51 31 -13 c31 -13 32 -16 32 -72z m-125 -58 c0
-44 -16 -48 -48 -10 -24 26 -32 45 -32 72 l0 37 40 -39 c22 -21 40 -48 40 -60z
m673 -36 c-27 -28 -47 -40 -57 -36 -22 9 -20 24 9 52 16 17 35 25 57 25 l33 0
-42 -41z m123 22 c35 -22 78 -85 71 -104 -6 -16 -109 -57 -141 -57 -12 0 -38
14 -59 31 -30 25 -35 34 -26 45 18 22 102 18 123 -5 18 -19 17 -19 -29 -5 -32
9 -53 11 -64 4 -13 -7 -10 -9 14 -10 17 0 51 -7 78 -15 42 -13 64 -7 36 11 -8
4 -7 9 2 15 11 7 11 9 2 10 -7 1 -18 2 -25 3 -24 2 -17 22 14 34 49 18 26 25
-26 8 -49 -17 -86 -21 -86 -9 0 14 54 63 69 63 9 0 30 -9 47 -19z m-460 -2
c19 -32 11 -260 -8 -241 -7 7 -7 35 1 87 11 75 11 76 -14 98 -18 16 -23 28
-19 45 7 23 28 30 40 11z m-296 -18 c5 -11 10 -32 11 -48 0 -23 2 -25 8 -9 7
18 8 18 24 -5 24 -33 21 -49 -7 -49 -25 0 -48 36 -61 98 -7 36 8 44 25 13z
m390 10 c0 -6 -4 -12 -9 -16 -6 -3 -13 -27 -17 -53 l-8 -47 -8 49 c-8 41 -6
50 9 62 21 16 33 18 33 5z m632 -26 c69 -8 142 -15 162 -15 20 0 36 -2 36 -3
0 -2 -25 -29 -55 -59 l-56 -56 -142 23 c-87 14 -135 25 -124 30 23 10 22 26
-8 69 l-25 37 42 -5 c24 -4 100 -13 170 -21z m-2062 7 c0 -19 -39 -121 -70
-182 -53 -105 -80 -185 -100 -304 -28 -156 -28 -156 -60 -156 -34 0 -40 23
-40 155 0 185 50 301 184 427 69 65 86 77 86 60z m864 -2 c-19 -19 -421 -19
-409 0 4 6 86 10 213 10 140 0 203 -3 196 -10z m726 -31 c0 -3 -18 -15 -39
-27 -22 -13 -49 -35 -60 -50 -11 -15 -21 -22 -21 -15 0 6 23 37 52 68 37 41
53 53 59 43 5 -7 9 -16 9 -19z m-930 -10 c0 -5 -4 -9 -10 -9 -5 0 -10 7 -10
16 0 8 5 12 10 9 6 -3 10 -10 10 -16z m236 -30 c-3 -28 -10 -57 -17 -65 -46
-56 -567 -123 -835 -107 -63 3 -114 8 -114 11 0 2 12 26 26 52 l26 47 141 6
c264 13 693 69 747 98 27 15 31 9 26 -42z m420 -23 c-9 -48 -26 -46 -26 3 0
22 -3 48 -6 58 -6 16 -4 15 16 -4 19 -17 21 -27 16 -57z m1021 59 c41 -29 39
-72 -6 -150 -23 -39 -47 -70 -54 -70 -7 0 -19 29 -29 68 -9 38 -19 71 -22 74
-7 8 64 93 78 93 6 0 21 -7 33 -15z m-2167 -3 c0 -8 -162 -42 -169 -36 -9 8
11 17 66 29 70 16 103 18 103 7z m353 -1 c11 -1 8 -31 -3 -31 -5 0 -10 7 -10
17 0 15 -2 15 -19 -1 -18 -17 -20 -17 -29 1 -10 18 0 20 61 14z m52 -1 c-3 -5
-10 -10 -16 -10 -5 0 -9 5 -9 10 0 6 7 10 16 10 8 0 12 -4 9 -10z m45 0 c0 -5
-4 -10 -10 -10 -5 0 -10 5 -10 10 0 6 5 10 10 10 6 0 10 -4 10 -10z m361 -27
c6 -16 11 -30 12 -32 1 -2 -16 -4 -38 -5 -39 -2 -41 -1 -37 25 3 19 11 29 26
32 11 2 22 5 24 6 1 0 7 -11 13 -26z m393 -21 c-2 -15 -4 -49 -5 -75 -2 -26
-7 -51 -12 -54 -7 -4 -8 17 -4 57 4 35 7 77 7 94 0 21 3 27 9 18 4 -8 7 -26 5
-40z m-920 23 c3 -8 1 -15 -4 -15 -6 0 -10 7 -10 15 0 8 2 15 4 15 2 0 6 -7
10 -15z m595 -52 c23 -35 37 -63 32 -63 -13 0 -81 100 -81 119 0 17 -3 21 49
-56z m571 59 c0 -5 -14 -21 -30 -37 -28 -27 -29 -30 -13 -37 14 -7 13 -8 -5
-4 -17 3 -31 -7 -64 -50 -40 -50 -78 -71 -78 -41 0 23 94 130 135 153 43 25
55 28 55 16z m-1436 -34 c-9 -14 -23 2 -17 18 4 12 8 13 14 3 4 -7 5 -17 3
-21z m-34 13 c0 -12 -20 -25 -27 -18 -7 7 6 27 18 27 5 0 9 -4 9 -9z m-70 -10
c0 -12 -39 -21 -45 -11 -6 10 1 15 25 17 11 1 20 -2 20 -6z m1601 -42 l24 -19
-36 0 c-19 0 -44 6 -54 14 -19 14 -19 15 -1 35 17 19 20 19 31 5 6 -9 22 -25
36 -35z m-1861 16 c-14 -16 -60 -21 -60 -6 0 10 22 18 54 20 15 1 16 -2 6 -14z
m1200 -48 c-4 -5 -17 -4 -28 2 -11 6 -30 11 -41 11 -11 0 -23 5 -27 11 -4 7 0
9 13 5 11 -4 31 -2 44 2 18 7 27 5 36 -7 6 -9 8 -20 3 -24z m120 19 c0 -32
-16 -41 -36 -21 -20 20 -11 45 16 45 15 0 20 -7 20 -24z m-1356 -31 c-9 -14
-18 -25 -19 -25 -1 0 -5 11 -7 25 -4 21 -1 25 19 25 23 0 23 -1 7 -25z m1202
-4 c44 -11 106 -22 139 -26 33 -4 128 -17 210 -30 154 -24 338 -44 435 -48 49
-2 55 -4 58 -25 2 -13 -3 -33 -12 -46 -16 -25 -28 -26 -286 -42 -105 -6 -168
3 -512 78 l-196 42 -4 39 c-3 36 -1 40 24 49 15 6 28 14 28 19 0 14 29 11 116
-10z m-189 -167 c-4 -81 -8 -148 -9 -150 -2 -1 -179 -28 -393 -59 -215 -31
-396 -57 -404 -58 -7 -1 -18 14 -25 33 -12 34 -11 36 34 86 53 60 84 110 72
118 -5 3 -37 -8 -71 -24 -35 -17 -66 -30 -70 -30 -4 0 -14 22 -23 50 -12 38
-14 58 -6 82 l10 33 261 0 c262 1 383 11 552 49 33 7 64 14 69 15 5 0 6 -60 3
-145z m767 140 c9 -3 16 -15 16 -25 0 -16 -5 -18 -27 -12 -16 3 -36 6 -45 5
-10 0 -18 2 -18 5 0 9 34 32 47 33 6 0 18 -3 27 -6z m56 -14 c0 -5 -7 -10 -15
-10 -8 0 -15 5 -15 10 0 6 7 10 15 10 8 0 15 -4 15 -10z m40 -10 c0 -5 11 -10
25 -10 14 0 25 -4 25 -9 0 -5 -8 -8 -17 -6 -10 2 -34 4 -53 5 -19 1 -27 4 -17
7 9 2 17 9 17 14 0 5 5 9 10 9 6 0 10 -4 10 -10z m-644 -116 c154 -36 299 -64
348 -65 52 -1 0 -17 -59 -18 -27 -1 -142 -14 -255 -31 -113 -16 -213 -30 -223
-30 -16 0 -18 9 -15 95 l3 95 30 -6 c17 -3 93 -21 171 -40z m1867 18 c14 -15
16 -65 14 -445 l-2 -427 -60 6 c-98 11 -105 16 -105 71 0 27 -7 95 -15 153
-14 103 -20 454 -9 496 5 19 10 21 42 13 50 -12 55 -11 77 5 14 10 19 24 17
52 -3 43 6 94 17 94 4 0 15 -8 24 -18z m-3783 -48 c0 -2 -16 -4 -35 -4 -31 0
-35 3 -35 25 l0 24 35 -20 c19 -12 35 -23 35 -25z m793 -42 c14 -40 14 -44 -4
-65 -10 -12 -28 -33 -39 -47 l-20 -25 9 30 c5 17 15 58 21 93 7 34 14 61 16
60 1 -2 9 -22 17 -46z m-634 -27 c75 -39 202 -146 183 -153 -6 -2 -57 17 -114
41 -87 37 -128 51 -178 62 -3 1 -27 5 -55 9 -64 10 -66 12 -55 41 6 15 6 25 0
25 -5 0 -10 -10 -12 -22 -3 -21 -7 -23 -58 -20 -30 2 -56 5 -57 6 -1 1 0 12 3
23 7 26 38 31 174 29 90 -2 99 -4 169 -41z m762 9 c-12 -16 -60 -68 -106 -116
-77 -80 -105 -102 -105 -80 0 13 54 95 90 136 31 35 129 100 138 91 2 -2 -5
-16 -17 -31z m-1117 -1 c-5 -17 -16 -22 -62 -26 -32 -2 -58 -3 -60 -2 -2 1 25
14 60 28 35 14 64 24 65 23 1 -1 0 -11 -3 -23z m3002 -110 c-3 -10 -12 -57
-22 -105 l-17 -88 -77 0 -78 0 14 63 c31 131 24 120 90 133 88 17 96 17 90 -3z
m-1958 -46 c3 -25 1 -27 -33 -27 l-37 0 24 29 c27 35 42 34 46 -2z m1771 -38
c-11 -39 -26 -84 -34 -100 -17 -33 -19 -43 -5 -34 5 3 48 7 95 8 62 1 85 -1
85 -10 0 -7 -3 -13 -7 -13 -37 0 -304 -23 -361 -30 -41 -6 -196 -21 -345 -35
-150 -14 -375 -39 -502 -55 -126 -17 -309 -39 -405 -50 -96 -11 -253 -29 -348
-42 l-174 -22 -115 38 c-112 37 -136 40 -116 14 5 -7 16 -40 23 -73 7 -33 15
-66 17 -72 3 -8 -3 -13 -15 -13 -17 0 -21 11 -33 96 l-13 96 -39 19 c-74 38
-29 30 99 -17 154 -57 204 -62 380 -40 71 9 188 21 259 26 72 6 175 17 230 25
276 38 499 67 675 85 107 11 247 27 310 35 63 8 147 17 187 21 l72 7 26 76
c14 42 25 85 25 97 0 25 8 34 31 34 17 0 17 -4 -2 -71z m-72 34 c-3 -16 -9
-56 -12 -89 l-7 -62 -70 -7 c-39 -3 -71 -5 -73 -3 -2 2 1 23 5 48 5 25 9 62
10 82 0 36 1 37 48 43 26 3 54 8 62 9 38 9 43 6 37 -21z m24 -24 c-9 -23 -10
-23 -10 -2 -1 12 2 30 6 40 6 15 8 15 11 2 1 -8 -2 -26 -7 -40z m-186 -21
c-10 -87 -16 -108 -29 -108 -9 0 -10 15 -5 58 4 31 8 67 8 80 1 13 7 22 17 22
13 0 15 -8 9 -52z m-49 -42 l-10 -84 -44 -6 c-25 -3 -47 -5 -49 -3 -2 2 5 40
14 85 18 85 20 87 78 91 19 1 20 -2 11 -83z m-2052 60 c-4 -11 17 -17 98 -26
l103 -12 -4 -45 c-3 -40 -5 -44 -25 -39 -11 2 -39 7 -61 10 l-40 6 30 -15 c17
-8 42 -14 56 -15 27 0 42 -10 74 -49 l20 -24 -30 7 c-16 3 -90 25 -164 49
-126 39 -135 44 -148 74 -14 35 -17 75 -6 86 3 4 28 7 54 7 37 0 47 -3 43 -14z
m1949 -68 c-17 -86 -22 -103 -29 -96 -4 5 13 136 22 166 2 7 8 11 13 8 5 -3 2
-38 -6 -78z m-30 30 c-3 -24 -9 -61 -12 -83 l-7 -40 -59 -7 c-33 -3 -61 -5
-63 -4 -1 2 3 37 10 79 l11 76 51 9 c28 5 56 10 63 11 7 1 9 -13 6 -41z m-137
0 c-3 -13 -10 -49 -16 -80 -6 -32 -15 -58 -19 -58 -12 0 0 144 13 152 20 13
26 9 22 -14z m-52 -60 c-3 -40 -9 -76 -13 -79 -3 -4 -33 -9 -67 -13 l-60 -7 7
58 c4 32 8 68 8 80 1 22 5 23 109 31 23 2 23 1 16 -70z m-148 -20 c-7 -70 -18
-99 -32 -85 -4 3 -3 40 1 82 5 58 10 75 22 75 13 0 15 -11 9 -72z m-50 -10
c-3 -39 -8 -73 -9 -74 -1 -1 -24 -5 -50 -9 l-48 -7 3 73 3 74 35 6 c77 14 74
17 66 -63z m-120 30 c-3 -13 -6 -47 -6 -75 0 -51 -1 -53 -27 -53 l-28 0 3 67
c4 69 12 83 46 83 14 0 17 -5 12 -22z m-106 -62 l0 -74 -75 -11 c-42 -6 -80
-11 -85 -11 -10 0 -25 128 -16 137 4 4 43 12 89 19 45 6 83 12 85 13 1 0 2
-32 2 -73z m32 -1 c-5 -97 -22 -98 -22 0 0 53 4 75 13 75 9 0 11 -20 9 -75z
m-222 -30 c0 -84 -14 -100 -24 -29 -10 76 -8 104 9 104 12 0 15 -15 15 -75z
m-50 48 c0 -10 3 -41 6 -69 l6 -51 -46 -7 c-25 -3 -66 -9 -90 -12 l-43 -6 -7
56 c-4 31 -12 59 -18 62 -10 6 -5 -51 8 -98 3 -9 0 -19 -5 -23 -6 -3 -13 7
-17 22 -3 15 -10 44 -15 63 -5 19 -9 38 -9 42 0 3 30 11 68 17 153 25 162 25
162 4z m-1077 -45 c3 -21 2 -38 -4 -38 -5 0 -9 19 -9 42 0 49 5 47 13 -4z
m848 -36 c9 -37 16 -68 15 -68 0 -1 -38 -4 -82 -6 l-82 -5 -16 60 c-9 33 -15
61 -14 62 2 1 37 7 78 12 41 6 77 11 80 11 3 1 12 -28 21 -66z m-795 50 c10
-7 28 -72 19 -72 -26 0 -53 23 -57 49 -5 31 11 41 38 23z m2424 -6 c0 -4 -41
-181 -61 -263 l-12 -51 -61 -7 c-34 -3 -74 -9 -89 -12 -25 -4 -28 -2 -24 13 4
11 18 62 32 114 15 52 33 118 41 147 l14 52 68 4 c37 2 73 4 80 5 6 1 12 0 12
-2z m-2368 -43 c8 -62 -8 -60 -22 1 -6 27 -5 36 5 36 7 0 15 -16 17 -37z m548
-3 c0 -22 4 -40 9 -40 5 0 11 -9 14 -20 4 -14 0 -20 -13 -20 -13 0 -19 13 -27
60 -8 48 -7 60 4 60 9 0 13 -13 13 -40z m1615 13 l-6 -28 15 30 c24 50 18 14
-24 -144 -22 -82 -40 -152 -40 -155 0 -4 -4 -6 -10 -6 -5 0 -2 21 6 48 21 69
27 116 6 55 -18 -53 -40 -88 -28 -43 4 14 21 80 39 148 18 67 35 122 40 122 4
0 5 -12 2 -27z m-2068 -44 c11 -43 10 -44 -35 -28 -28 10 -42 32 -42 71 0 14
5 15 33 6 27 -8 35 -18 44 -49z m418 19 c3 -24 8 -50 11 -59 3 -13 -13 -17
-103 -25 -60 -6 -111 -8 -115 -5 -4 3 -10 29 -13 57 l-7 51 78 10 c145 18 141
19 149 -29z m1615 34 c0 -5 -11 -40 -23 -78 -13 -38 -34 -108 -47 -156 l-23
-88 -49 0 c-26 0 -48 3 -48 7 0 4 9 63 20 132 10 69 21 137 22 151 3 21 10 26
43 31 62 10 105 10 105 1z m-185 -172 c-24 -147 -29 -169 -40 -159 -6 7 42
305 51 321 16 26 14 -14 -11 -162z m-1661 78 c4 -28 3 -48 -2 -48 -10 0 -32
117 -23 125 7 8 17 -22 25 -77z m1645 65 c0 -10 -10 -81 -22 -158 l-23 -140
-50 -3 -51 -3 13 63 c7 35 19 104 25 155 l12 92 41 4 c23 2 44 4 49 5 4 1 7
-6 6 -15z m-1801 -24 c2 -13 8 -28 14 -34 7 -7 8 0 3 23 -6 30 -5 32 22 32 15
0 37 3 48 6 18 4 22 -2 31 -50 12 -65 9 -67 -74 -40 -37 12 -52 23 -56 39 -3
13 -9 31 -13 40 -4 13 -2 16 8 13 8 -2 16 -15 17 -29z m1635 -127 c-28 -149
-28 -150 -57 -156 -15 -3 -42 -6 -58 -6 -27 0 -29 3 -24 28 6 35 35 219 38
252 3 23 8 25 63 30 33 3 61 4 63 3 2 0 -9 -69 -25 -151z m57 150 c0 -17 -52
-297 -56 -301 -14 -14 -11 19 11 130 13 68 25 136 25 152 0 15 5 27 10 27 6 0
10 -4 10 -8z m-210 -19 c0 -5 -9 -60 -20 -123 -11 -63 -20 -127 -20 -142 0
-25 -3 -26 -57 -30 -32 -2 -59 -3 -61 -2 -2 1 5 67 14 147 l18 146 55 4 c31 2
59 4 64 5 4 1 7 -1 7 -5z m36 -20 c-3 -16 -13 -75 -21 -133 -20 -135 -24 -152
-33 -146 -5 3 0 63 11 133 24 167 26 173 38 173 6 0 8 -11 5 -27z m-226 0 c0
-19 -30 -277 -33 -278 -1 -2 -35 -6 -74 -9 -68 -7 -73 -6 -73 12 0 13 12 24
38 34 l37 14 0 109 0 110 45 6 c25 3 48 7 53 7 4 1 7 -1 7 -5z m27 -135 c-11
-79 -22 -145 -24 -147 -12 -15 -13 20 -3 115 17 159 20 174 34 174 9 0 8 -31
-7 -142z m-147 28 l0 -104 -31 -11 -32 -11 6 68 c4 37 7 86 7 109 0 40 5 46
43 52 4 0 7 -46 7 -103z m-1320 -9 c6 -40 13 -78 15 -84 5 -14 -13 -17 -32 -5
-6 4 -16 36 -22 72 -7 36 -14 78 -17 93 -6 29 -6 29 19 12 21 -13 27 -29 37
-88z m1253 11 c-6 -137 -13 -198 -24 -198 -9 0 -8 52 6 235 4 60 3 55 14 55 5
0 7 -42 4 -92z m-37 30 c-3 -29 -6 -79 -6 -110 l0 -57 -37 -10 c-21 -5 -55
-11 -75 -14 l-38 -6 0 114 0 114 38 6 c20 4 42 8 47 10 6 2 25 4 44 4 l34 1
-7 -52z m-171 -103 c0 -74 -3 -135 -7 -135 -5 0 -8 37 -8 83 0 45 -3 106 -6
135 -5 41 -4 52 7 52 11 0 14 -26 14 -135z m-40 13 l0 -113 -72 -3 -71 -3 -7
88 c-9 133 -13 131 -14 -9 -1 -78 -5 -128 -11 -128 -6 0 -10 48 -10 125 0 69
-1 128 -2 132 -2 4 22 8 52 11 30 2 57 6 59 8 2 2 21 4 40 4 l36 0 0 -112z
m-884 70 l56 -22 20 -98 c10 -54 16 -98 12 -98 -4 0 -14 39 -24 88 -10 48 -22
91 -26 96 -10 11 -1 -48 17 -119 7 -27 11 -51 9 -53 -1 -2 -51 14 -109 34 -59
20 -105 39 -102 41 3 3 20 0 38 -5 67 -21 88 -23 82 -9 -11 31 -41 167 -36
167 4 0 32 -10 63 -22z m680 -60 c0 -46 2 -93 5 -106 4 -22 2 -23 -43 -17 -73
11 -89 26 -113 106 -12 39 -19 74 -16 77 3 3 36 9 74 12 37 4 73 8 80 9 9 1
12 -22 13 -81z m-199 -60 c14 -116 15 -138 3 -127 -4 5 -35 209 -35 236 0 7 4
13 8 13 5 0 16 -55 24 -122z m27 42 c7 -30 18 -65 27 -77 13 -21 13 -23 -6
-23 -11 0 -20 1 -20 3 0 1 -7 40 -15 87 -8 47 -15 87 -15 90 1 17 19 -34 29
-80z m-74 48 c7 -32 25 -176 25 -198 0 -16 -12 -20 -92 -26 -51 -5 -97 -9
-103 -9 -5 0 -17 45 -27 100 -10 55 -20 106 -23 112 -5 14 11 19 105 32 104
14 109 13 115 -11z m-287 -11 c6 3 12 1 12 -4 0 -12 27 -164 35 -195 l7 -28
-49 21 c-30 12 -49 26 -50 37 -1 10 -9 55 -17 101 -9 46 -16 85 -16 87 0 1 15
-3 33 -10 17 -7 38 -11 45 -9z m58 -34 c14 -80 34 -176 40 -184 3 -5 -1 -9
-10 -9 -14 0 -39 86 -53 186 -7 55 13 61 23 7z m1761 -75 c-3 -8 -6 -5 -6 6
-1 11 2 17 5 13 3 -3 4 -12 1 -19z m233 -3 c0 -8 -3 -15 -6 -15 -3 0 -78 -9
-167 -19 -233 -28 -386 -39 -887 -61 -417 -19 -681 -38 -845 -60 l-70 -9 -117
51 c-65 28 -118 54 -118 58 0 5 51 -12 112 -37 l113 -45 110 11 c115 12 151
14 410 31 88 5 212 14 275 20 220 19 426 30 510 29 103 -1 486 28 590 46 41 7
78 13 83 14 4 0 7 -6 7 -14z m-2288 -56 c17 -85 58 -295 58 -301 0 -16 -61 28
-65 47 -3 11 -11 74 -20 140 -8 66 -18 130 -21 143 -6 20 -4 21 17 14 16 -6
26 -20 31 -43z m1163 14 c-11 -7 -35 -13 -54 -13 -20 0 -46 -3 -58 -6 -16 -4
-23 -2 -23 8 0 9 13 15 38 16 21 2 51 6 67 11 38 10 54 2 30 -16z m-1070 -160
c21 -87 42 -167 47 -177 9 -16 8 -18 -8 -11 -11 4 -27 9 -36 12 -12 4 -20 25
-28 76 -7 40 -21 114 -31 166 -23 115 -23 114 0 101 15 -7 28 -46 56 -167z
m558 139 c-7 -29 -53 -31 -53 -3 0 14 8 21 28 23 34 4 32 6 25 -20z m33 12
c-3 -9 -6 -20 -6 -25 0 -5 -4 -9 -9 -9 -4 0 -6 11 -3 25 2 14 9 25 14 25 6 0
7 -7 4 -16z m1584 14 c-1 -36 -57 -328 -76 -393 -39 -133 -31 -125 -131 -125
l-86 0 7 57 c9 81 66 392 76 419 8 19 19 23 77 29 37 3 77 7 88 9 33 5 45 6
45 4z m-1513 -19 c26 -10 27 -12 8 -19 -11 -5 -32 -9 -47 -9 -21 -1 -25 3 -21
19 6 23 20 25 60 9z m223 2 c0 -9 -72 -21 -128 -21 -53 0 -27 18 33 23 28 2
60 4 73 5 12 1 22 -2 22 -7z m-786 -207 c14 -75 29 -140 32 -145 8 -14 -30
-11 -49 4 -10 7 -30 70 -54 167 l-38 156 41 -23 42 -23 26 -136z m1686 30
c-28 -202 -53 -317 -69 -322 -10 -3 -12 2 -7 21 13 53 66 383 66 413 0 26 16
49 28 39 1 -1 -7 -69 -18 -151z m108 84 c-11 -39 -27 -101 -37 -137 -15 -60
-18 -66 -44 -69 -27 -3 -29 -1 -23 25 3 15 10 73 16 128 6 55 13 106 15 113 3
7 22 12 49 12 l44 0 -20 -72z m48 50 c-5 -19 -32 -179 -72 -427 -3 -18 -8 -31
-11 -28 -18 19 58 477 80 477 5 0 7 -10 3 -22z m-179 -7 c-2 -11 -13 -74 -23
-140 l-19 -121 -48 0 c-46 0 -49 1 -44 23 3 12 13 72 23 134 l17 112 31 4 c67
8 69 8 63 -12z m-151 -8 c-6 -19 -46 -232 -46 -247 0 -8 -86 -3 -95 5 -1 2 5
58 14 124 l17 120 50 6 c27 3 53 7 57 7 5 1 6 -6 3 -15z m34 4 c0 -7 -12 -78
-26 -157 -15 -80 -28 -158 -31 -175 -2 -16 -9 -46 -15 -66 l-10 -37 -79 -1
c-90 -2 -84 -11 -69 106 21 162 53 333 63 333 5 0 7 -13 3 -30 -5 -26 -20
-131 -51 -351 -5 -36 -4 -37 33 -41 46 -6 56 0 14 8 -18 4 -32 11 -32 17 0 9
22 7 83 -8 27 -7 25 -15 83 318 10 53 21 97 26 97 4 0 8 -6 8 -13z m-381 -59
c-4 -29 -10 -74 -14 -100 l-6 -47 -42 15 c-79 28 -82 33 -79 112 l4 71 66 3
c37 2 70 2 73 1 3 -1 3 -26 -2 -55z m51 45 c0 -10 -9 -90 -20 -178 -12 -88
-23 -179 -26 -202 -3 -24 -10 -43 -15 -43 -7 0 -9 15 -5 38 3 20 12 105 21
187 8 83 17 165 20 183 6 33 25 45 25 15z m137 5 c-2 -7 -13 -62 -23 -121
l-18 -109 -46 7 c-25 4 -48 10 -51 13 -4 4 -1 52 7 107 7 55 13 103 14 108 0
4 27 7 61 7 45 0 60 -3 56 -12z m-542 -285 c-4 -79 -11 -143 -16 -143 -8 0 -3
278 6 335 2 11 5 38 6 60 7 97 10 -124 4 -252z m161 125 c-4 -90 -8 -163 -9
-164 -1 -1 -33 -5 -71 -9 l-69 -7 6 84 c4 45 7 120 7 165 l0 82 58 4 c31 2 63
4 71 5 12 2 13 -24 7 -160z m26 -54 c-7 -114 -15 -210 -17 -213 -15 -14 -17
20 -6 109 6 55 11 129 11 164 0 75 10 157 19 152 3 -2 0 -98 -7 -212z m-215
109 c-4 -54 -7 -128 -7 -165 l0 -66 -76 -4 -77 -3 7 89 c3 49 6 122 6 162 l0
73 48 4 c26 2 60 4 76 5 l29 2 -6 -97z m-205 -86 l-3 -158 -57 3 c-68 4 -75
15 -55 98 7 30 16 92 19 137 l7 82 41 3 c23 2 43 1 46 -2 3 -3 4 -76 2 -163z
m38 -32 c0 -183 -2 -205 -16 -205 -15 0 -16 9 -10 61 3 34 6 127 6 205 0 89 4
144 10 144 6 0 10 -75 10 -205z m-538 173 c23 -11 29 -23 38 -78 26 -155 37
-225 36 -226 0 -1 -15 5 -32 12 -30 12 -32 16 -58 149 -15 76 -30 144 -33 153
-7 16 -2 15 49 -10z m349 -195 c20 -149 21 -199 5 -182 -8 8 -54 384 -48 394
9 15 18 -30 43 -212z m18 190 c-1 -45 -16 -130 -18 -103 -1 14 -4 49 -7 78 -6
44 -4 52 10 52 11 0 16 -8 15 -27z m31 11 c0 -47 -25 -194 -33 -194 -5 0 -6 7
-3 16 4 9 9 57 13 105 3 49 10 89 14 89 5 0 9 -7 9 -16z m-101 -116 c7 -68 15
-135 18 -150 5 -26 3 -28 -28 -28 -31 0 -96 -12 -140 -26 -14 -4 -18 8 -23 68
-4 39 -14 108 -22 152 -7 44 -13 81 -11 82 1 1 40 7 87 12 47 5 90 10 96 11 7
0 15 -46 23 -121z m706 -32 l59 -25 -3 -48 c-1 -26 -4 -50 -6 -52 -3 -2 -30
-3 -62 -3 -53 0 -58 1 -57 21 0 11 1 46 2 76 1 30 3 55 5 55 1 0 29 -11 62
-24z m194 -51 c33 -7 33 -7 27 -53 -3 -25 -8 -47 -9 -49 -2 -2 -25 0 -50 3
l-47 7 0 47 c0 51 6 62 29 56 9 -3 31 -8 50 -11z m476 -42 c-2 -21 -7 -64 -10
-95 l-6 -58 -46 0 c-32 0 -44 4 -40 13 2 6 10 45 17 85 12 68 15 73 44 81 47
14 47 14 41 -26z m-288 14 c2 -3 -18 -101 -22 -105 -5 -6 -95 21 -90 27 2 4 5
27 7 50 l2 43 50 -7 c28 -3 52 -7 53 -8z m148 -21 c-3 -11 -9 -41 -13 -64 -4
-24 -10 -44 -15 -44 -4 0 -25 3 -48 7 -31 5 -39 11 -35 23 2 10 7 36 11 58 l6
42 50 0 c45 0 48 -2 44 -22z m-1600 -18 c14 -6 25 -15 25 -20 0 -5 -13 -2 -30
7 -45 23 -41 34 5 13z m945 -38 c0 -13 -20 -13 -40 0 -12 8 -9 10 13 10 15 0
27 -4 27 -10z m170 -26 c0 -25 -4 -35 -12 -32 -7 3 -36 13 -65 22 -72 24 -63
46 18 46 l59 0 0 -36z m-736 6 c16 0 18 -2 7 -9 -12 -7 -12 -13 -3 -24 18 -21
7 -24 -56 -16 -73 10 -118 27 -106 39 11 11 70 19 108 14 16 -2 38 -4 50 -4z
m184 -22 c-3 -31 -6 -33 -43 -36 -48 -3 -61 5 -70 41 l-7 27 62 0 61 0 -3 -32z
m199 2 c-2 -17 -6 -33 -9 -35 -8 -8 -138 45 -138 56 0 5 34 9 75 9 l75 0 -3
-30z m175 12 c4 -4 5 -17 2 -30 -6 -20 -13 -22 -70 -22 l-64 0 0 36 0 37 62
-7 c34 -3 66 -10 70 -14z m328 8 c18 -7 12 -8 -25 -5 l-50 4 48 -11 c35 -9 47
-16 47 -30 0 -15 -8 -18 -55 -18 -54 0 -55 0 -55 29 0 39 32 50 90 31z m-211
-40 c23 -6 41 -13 41 -15 0 -3 -25 -5 -55 -5 -49 0 -55 2 -55 21 0 14 5 19 14
16 8 -3 33 -11 55 -17z m-405 -6 c9 -3 14 -10 11 -14 -6 -10 -45 -1 -45 11 0
10 12 11 34 3z m924 -7 c6 0 12 -4 12 -9 0 -10 -35 -10 -79 -2 -17 4 -28 11
-25 16 3 5 22 5 42 2 20 -4 43 -7 50 -7z m-1243 -123 c13 -106 -20 -235 -77
-300 -39 -44 -166 -149 -243 -201 -64 -43 -125 -76 -125 -69 0 3 64 54 143
114 79 61 162 131 185 158 69 78 86 174 56 322 -6 30 -5 32 24 32 29 0 30 -2
37 -56z m214 31 c76 -39 173 -187 186 -286 9 -62 -16 -116 -86 -194 -66 -72
-244 -186 -262 -168 -4 3 29 28 71 55 158 102 222 190 222 304 0 85 -40 163
-126 243 -63 59 -65 77 -5 46z m354 -32 c126 -67 153 -122 167 -352 8 -136 6
-201 -9 -201 -26 0 -406 -43 -493 -56 -60 -9 -112 -14 -114 -11 -2 2 26 22 63
43 83 48 192 153 221 215 25 51 29 126 10 180 -17 51 -81 141 -131 185 l-44
39 131 -3 c128 -4 133 -5 199 -39z m58 10 c182 -97 235 -242 188 -517 -19
-111 -58 -160 -173 -218 -66 -33 -186 -71 -186 -59 0 4 38 22 84 40 102 40
173 85 203 130 21 31 23 45 23 157 0 145 -14 257 -41 331 -22 58 -68 102 -154
147 -39 20 -43 24 -20 20 17 -4 51 -18 76 -31z m151 -6 c15 -18 39 -55 53 -83
23 -44 26 -61 23 -130 l-3 -79 -9 50 c-19 110 -80 198 -171 246 -25 13 -45 27
-45 30 0 3 28 3 63 1 55 -3 65 -7 89 -35z m85 11 c12 -11 32 -43 44 -71 19
-44 23 -70 23 -162 0 -60 -6 -170 -14 -243 -12 -120 -15 -132 -32 -127 -61 17
-57 11 -42 62 8 25 14 62 14 82 0 20 7 71 15 114 29 151 17 225 -49 315 -20
27 -36 52 -36 54 0 12 57 -6 77 -24z m287 -14 c39 -14 89 -36 112 -49 48 -28
133 -117 189 -199 l40 -58 4 -179 3 -179 -23 0 c-37 -1 -213 -18 -332 -33
l-108 -13 -19 33 c-10 17 -35 42 -55 55 -31 20 -35 27 -30 52 15 80 27 282 22
368 -6 102 -31 181 -68 214 -10 9 -19 20 -19 23 0 16 217 -11 284 -35z m69 7
c47 -16 105 -40 129 -54 49 -29 135 -109 193 -181 l40 -49 0 -227 0 -227 -185
-27 c-102 -14 -270 -38 -375 -51 -612 -81 -735 -98 -875 -120 -298 -46 -315
-48 -357 -35 -21 7 -74 31 -118 55 -44 23 -108 53 -143 65 -68 25 -115 69
-110 104 4 27 37 24 115 -10 125 -56 299 -126 313 -126 8 1 105 12 215 26 110
13 243 27 295 31 52 3 169 17 260 31 199 29 320 45 630 80 129 15 246 31 259
36 l24 9 -7 165 c-3 91 -12 182 -19 203 -16 46 -92 153 -144 203 -44 42 -117
81 -186 98 -26 7 -50 16 -53 21 -8 14 7 11 99 -20z m-505 -613 c-13 -20 -32
-25 -144 -39 -121 -16 -133 -16 -196 0 -37 10 -70 20 -73 23 -5 5 298 33 389
37 38 1 38 1 24 -21z m153 -43 c16 -35 29 -66 29 -69 0 -2 -9 -6 -20 -9 -14
-4 -28 6 -52 37 -32 40 -33 42 -18 73 8 18 19 33 23 33 5 0 21 -29 38 -65z
m91 -1 c43 -28 68 -64 44 -64 -9 0 -20 9 -27 21 -6 11 -31 30 -55 40 -24 11
-44 25 -44 30 0 14 37 2 82 -27z m-992 8 c0 -34 -237 -88 -337 -76 -35 4 -44
3 -33 -5 8 -6 34 -11 58 -11 48 0 49 -14 1 -24 -28 -5 -159 30 -159 44 0 3 93
18 207 34 173 24 226 33 261 45 1 1 2 -2 2 -7z m90 4 c0 -6 -140 -86 -151 -86
-22 0 -4 18 54 52 54 33 97 48 97 34z m274 -12 c99 -25 216 -66 211 -74 -3 -5
-24 -2 -48 5 -24 7 -99 25 -167 40 -69 15 -132 31 -140 36 -26 15 78 10 144
-7z m-184 -8 c36 -8 106 -24 155 -35 132 -29 211 -49 199 -50 -6 -1 -27 -12
-46 -25 -28 -19 -54 -25 -131 -31 -54 -4 -155 -15 -227 -24 l-129 -17 -22 29
c-29 39 -80 58 -155 59 -35 0 -64 4 -64 8 0 11 144 29 155 19 18 -18 62 -8
111 23 67 43 89 57 89 57 0 1 29 -6 65 -13z m481 -22 c-41 -25 -46 -26 -98
-14 -30 6 -52 14 -49 18 6 5 103 17 166 20 21 2 18 -2 -19 -24z m309 1 c40
-25 52 -45 26 -45 -7 0 -21 10 -30 23 -12 15 -15 16 -12 5 3 -10 0 -20 -6 -24
-6 -4 -8 -3 -5 3 3 5 0 21 -8 36 -17 33 -15 33 35 2z m-132 -26 c21 -26 22
-29 5 -29 -10 0 -28 -3 -40 -6 -25 -7 -28 1 -13 40 12 33 19 32 48 -5z m-75
-29 c-4 -4 -18 -11 -30 -15 -33 -9 -29 16 5 36 23 13 28 13 30 1 2 -8 0 -18
-5 -22z m-73 -20 c-20 -13 -33 -13 -25 0 3 6 14 10 23 10 15 0 15 -2 2 -10z
m-868 -20 c56 1 127 -24 143 -51 13 -20 -4 -22 -32 -4 -37 25 -89 35 -124 25
-34 -10 -119 17 -97 32 7 4 22 6 33 2 11 -3 46 -5 77 -4z m1861 -84 c2 -12 12
-47 20 -79 17 -61 13 -92 -9 -83 -8 3 -14 1 -14 -4 0 -15 21 -12 41 6 14 12
15 22 8 47 -15 52 -11 65 11 37 47 -62 42 -160 -12 -205 -52 -44 -120 -28
-153 35 -22 42 -19 122 4 151 l19 24 11 -28 c6 -16 11 -47 12 -70 2 -85 23
-116 73 -103 33 8 66 60 65 101 -1 28 -2 27 -10 -9 -13 -55 -36 -78 -73 -74
-28 3 -31 7 -38 47 -9 55 -4 62 17 22 16 -32 42 -40 63 -19 17 17 15 33 -3 18
-21 -18 -47 -4 -44 22 3 25 -26 88 -40 88 -5 0 -16 20 -26 45 -9 25 -28 53
-41 62 -34 22 -30 37 9 30 19 -3 40 -1 48 4 16 10 54 -30 62 -65z m-1800 33
c44 -12 49 -29 7 -29 -32 0 -80 19 -80 32 0 11 27 10 73 -3z m1147 -38 c-5
-10 -25 -32 -45 -50 -49 -43 -107 -43 -160 -1 -48 38 -62 28 -15 -11 45 -38
27 -37 -33 1 -50 32 -61 53 -24 49 12 -1 34 1 48 5 18 5 36 1 62 -14 45 -27
83 -21 126 21 33 32 58 31 41 0z m-60 13 c0 -12 -34 -33 -53 -34 -10 0 -28 6
-40 13 -20 11 -18 12 28 18 28 3 53 7 58 7 4 1 7 -1 7 -4z m615 -26 c12 -31
11 -34 -16 -66 -66 -75 -17 -230 78 -248 68 -13 137 42 148 119 10 67 -8 118
-60 165 -49 45 -59 68 -22 56 43 -14 67 -36 93 -90 22 -46 26 -64 22 -119 -3
-53 -9 -71 -34 -102 -17 -21 -51 -49 -76 -62 -41 -22 -48 -23 -77 -11 -85 35
-124 100 -125 205 0 54 5 80 22 113 12 23 18 42 12 42 -5 0 -19 -18 -30 -41
-49 -95 -32 -218 40 -283 22 -20 47 -36 55 -36 8 0 15 -4 15 -9 0 -10 -56 1
-86 17 -37 20 -81 79 -99 131 -24 73 -8 134 52 201 25 28 51 50 59 50 8 0 21
-15 29 -32z m-1941 -24 c11 -4 16 -19 16 -44 0 -20 5 -52 11 -71 15 -45 74
-106 117 -120 39 -13 95 -5 112 16 11 13 9 13 -16 0 -58 -30 -117 -9 -169 60
-32 41 -50 142 -24 133 8 -3 16 -24 20 -49 11 -92 70 -149 142 -135 39 7 92
60 103 101 3 14 10 25 15 25 33 0 -27 -132 -73 -160 -65 -42 -196 -5 -245 69
-32 47 -47 103 -39 145 7 39 7 39 30 30z m720 -71 c43 -87 77 -183 72 -201
-12 -35 -53 -65 -80 -58 -55 14 -76 61 -56 126 l7 25 12 -28 c6 -15 14 -39 17
-53 8 -32 38 -48 63 -35 29 16 34 42 12 62 -14 13 -21 15 -24 6 -3 -7 -16 2
-33 23 -16 19 -52 60 -81 91 -56 60 -66 77 -32 57 17 -10 23 -10 26 0 6 16 31
15 49 -2 8 -8 28 -43 44 -78 17 -35 30 -57 30 -50 0 10 -38 97 -68 155 -2 4 1
7 7 7 6 0 21 -21 35 -47z m-605 -18 c15 -44 48 -75 76 -75 20 0 49 22 84 65
19 24 26 10 11 -25 -30 -72 -114 -94 -163 -42 -29 30 -53 112 -33 112 7 0 18
-16 25 -35z m1901 -9 c0 -6 -7 -2 -15 8 -8 11 -15 25 -15 30 0 6 7 2 15 -8 8
-11 15 -25 15 -30z m-1876 28 c9 -3 16 -12 16 -19 0 -6 9 -20 21 -31 21 -19
21 -18 39 4 10 12 23 22 29 22 19 0 -1 -30 -29 -45 -23 -12 -30 -12 -49 1 -19
14 -58 74 -47 74 2 0 11 -3 20 -6z m64 -25 c-2 -6 -8 -10 -13 -10 -5 0 -11 4
-13 10 -2 6 4 11 13 11 9 0 15 -5 13 -11z m640 -51 c33 -51 42 -139 18 -190
-29 -61 -68 -81 -160 -82 -90 -1 -103 6 -137 79 -26 56 -24 107 8 177 23 51
28 57 40 45 12 -12 12 -19 -6 -48 -42 -68 -20 -173 44 -215 40 -26 108 -14
151 27 70 68 70 145 -2 213 -24 23 -44 45 -44 49 0 3 14 1 31 -5 17 -6 42 -28
57 -50z m-293 -20 c-41 -87 -31 -172 28 -235 12 -14 16 -23 8 -23 -43 0 -91
72 -91 138 0 44 20 107 45 146 30 45 35 28 10 -26z m97 -21 c-47 -60 0 -157
76 -157 65 0 97 78 64 154 -24 54 -17 60 16 13 56 -83 -1 -197 -98 -197 -23 0
-42 10 -66 34 -30 30 -34 40 -34 85 0 29 7 66 16 83 14 28 17 29 26 14 6 -11
6 -22 0 -29z m62 -43 c3 -8 2 -12 -4 -9 -6 3 -10 10 -10 16 0 14 7 11 14 -7z
m41 -32 c0 -18 -20 -15 -23 4 -3 10 1 15 10 12 7 -3 13 -10 13 -16z"/>
<path d="M1050 4592 c0 -4 22 -26 48 -48 73 -59 254 -262 246 -276 -4 -6 -3
-8 4 -4 10 6 52 -47 230 -289 81 -110 164 -261 226 -409 28 -67 28 -33 0 50
-51 151 -141 308 -300 519 -46 60 -99 127 -119 148 -30 30 -35 40 -25 52 15
18 26 130 14 138 -5 3 -10 -11 -10 -31 0 -20 -4 -54 -8 -76 l-7 -39 -117 115
c-115 113 -182 168 -182 150z"/>
<path d="M1535 4280 c3 -5 8 -10 11 -10 2 0 4 5 4 10 0 6 -5 10 -11 10 -5 0
-7 -4 -4 -10z"/>
<path d="M1740 3870 c-17 -41 -6 -50 14 -11 18 35 19 41 7 41 -5 0 -14 -14
-21 -30z"/>
<path d="M1811 3674 c0 -11 3 -14 6 -6 3 7 2 16 -1 19 -3 4 -6 -2 -5 -13z"/>
<path d="M2425 4560 c10 -17 65 -52 60 -38 -3 7 -19 21 -36 30 -16 10 -27 13
-24 8z"/>
<path d="M2537 4549 c4 -13 8 -18 11 -10 2 7 -1 18 -6 23 -8 8 -9 4 -5 -13z"/>
<path d="M2430 4345 c-7 -9 -8 -15 -2 -15 5 0 12 7 16 15 3 8 4 15 2 15 -2 0
-9 -7 -16 -15z"/>
<path d="M2271 4294 c0 -11 3 -14 6 -6 3 7 2 16 -1 19 -3 4 -6 -2 -5 -13z"/>
<path d="M2365 4190 c-16 -7 -17 -9 -3 -9 9 -1 20 4 23 9 7 11 7 11 -20 0z"/>
<path d="M3270 4425 c-7 -9 -10 -18 -7 -21 3 -3 10 4 17 15 13 25 8 27 -10 6z"/>
<path d="M3190 4180 c19 -11 40 -19 45 -19 6 0 -6 8 -25 19 -19 11 -39 19 -45
19 -5 0 6 -8 25 -19z"/>
<path d="M2026 4183 c-10 -10 -37 -75 -33 -79 2 -2 13 17 25 41 21 44 23 53 8
38z"/>
<path d="M2528 4315 c2 -14 8 -25 12 -25 10 0 1 38 -10 45 -4 2 -5 -7 -2 -20z"/>
<path d="M2746 4190 c21 -43 24 -47 24 -28 0 9 -9 26 -20 39 l-21 24 17 -35z"/>
<path d="M1796 4241 c3 -40 9 -83 14 -95 12 -30 11 -4 -5 89 l-14 80 5 -74z"/>
<path d="M1860 3921 c0 -11 4 -22 9 -25 4 -3 6 6 3 19 -5 30 -12 33 -12 6z"/>
<path d="M2546 4172 c-2 -4 4 -8 14 -8 10 0 16 4 14 8 -3 4 -9 8 -14 8 -5 0
-11 -4 -14 -8z"/>
<path d="M903 4104 c11 -11 78 -14 72 -4 -4 6 -22 10 -42 10 -20 0 -33 -3 -30
-6z"/>
<path d="M640 3975 c-11 -13 -10 -14 4 -9 9 3 16 10 16 15 0 13 -6 11 -20 -6z"/>
<path d="M998 3859 c21 -85 22 -103 11 -110 -12 -7 -11 -9 2 -9 11 0 21 -19
32 -62 14 -55 16 -57 11 -18 -3 25 -7 55 -11 68 -4 18 -1 22 18 22 13 0 31 5
39 11 11 8 5 9 -26 5 l-41 -6 -12 63 c-7 34 -14 70 -17 80 -4 12 0 17 15 17
11 0 23 5 27 11 5 8 -1 10 -20 7 -18 -4 -29 -1 -33 8 -3 8 -8 14 -12 14 -4 0
4 -45 17 -101z"/>
<path d="M915 3940 c3 -5 15 -10 26 -10 10 0 19 5 19 10 0 6 -12 10 -26 10
-14 0 -23 -4 -19 -10z"/>
<path d="M690 3910 c19 -10 59 -43 88 -73 l53 -54 -41 -27 c-23 -15 -40 -30
-37 -33 3 -2 23 7 43 21 l38 26 22 -28 22 -27 -46 -14 c-26 -7 -41 -16 -35
-18 7 -3 29 1 49 7 19 7 37 10 38 8 6 -6 66 -127 66 -132 0 -3 -17 -7 -37 -9
-35 -4 -35 -4 5 -3 23 1 42 -1 42 -5 0 -3 -15 -13 -32 -23 -18 -9 -24 -14 -13
-10 50 16 52 15 64 -15 7 -16 23 -70 36 -118 13 -48 24 -79 24 -68 1 29 -36
170 -54 204 -14 28 -14 31 3 41 15 10 15 10 -3 6 -16 -4 -24 4 -43 47 -13 29
-40 79 -59 111 -34 56 -35 60 -18 73 11 7 14 13 9 13 -6 0 -15 -5 -20 -10 -7
-7 -33 11 -82 60 -47 46 -80 70 -94 70 -20 -1 -18 -4 12 -20z"/>
<path d="M383 3793 c4 -3 2 -12 -4 -20 -14 -16 2 -18 18 -2 13 13 86 -25 183
-97 l61 -44 -27 -35 c-14 -19 -21 -35 -16 -35 6 0 16 8 21 18 28 48 26 48 119
-38 l89 -83 -28 -30 c-16 -17 -29 -35 -29 -41 0 -6 17 9 38 33 l39 45 -46 37
c-25 20 -68 59 -95 87 -44 46 -47 51 -30 61 11 6 14 11 9 11 -6 0 -16 -5 -23
-12 -9 -9 -17 -7 -34 9 -32 28 -135 96 -185 122 -40 20 -74 28 -60 14z"/>
<path d="M530 3765 c-11 -13 -10 -14 4 -9 9 3 16 10 16 15 0 13 -6 11 -20 -6z"/>
<path d="M910 3710 c0 -5 7 -7 15 -4 8 4 15 8 15 10 0 2 -7 4 -15 4 -8 0 -15
-4 -15 -10z"/>
<path d="M1083 3613 c-13 -2 -23 -8 -23 -12 0 -9 77 3 87 13 7 6 -28 6 -64 -1z"/>
<path d="M863 3603 c9 -2 23 -2 30 0 6 3 -1 5 -18 5 -16 0 -22 -2 -12 -5z"/>
<path d="M1072 3570 c0 -8 4 -26 8 -40 6 -20 8 -21 8 -5 0 11 -3 29 -8 40 -5
12 -8 14 -8 5z"/>
<path d="M696 3527 c3 -10 9 -15 12 -12 3 3 0 11 -7 18 -10 9 -11 8 -5 -6z"/>
<path d="M940 3489 c0 -5 5 -7 10 -4 6 3 10 8 10 11 0 2 -4 4 -10 4 -5 0 -10
-5 -10 -11z"/>
<path d="M1091 3495 c1 -19 18 -51 18 -35 0 8 -4 22 -9 30 -5 8 -9 11 -9 5z"/>
<path d="M765 3440 c3 -5 8 -10 11 -10 2 0 4 5 4 10 0 6 -5 10 -11 10 -5 0 -7
-4 -4 -10z"/>
<path d="M1120 3440 c-23 -7 -23 -8 -3 -9 12 -1 25 4 28 9 3 6 5 10 3 9 -2 -1
-14 -5 -28 -9z"/>
<path d="M953 3422 c10 -10 14 -22 10 -25 -3 -4 2 -7 12 -7 17 0 16 3 -5 25
-27 29 -42 35 -17 7z"/>
<path d="M630 3335 c-7 -9 -11 -18 -8 -20 3 -3 11 1 18 10 7 9 11 18 8 20 -3
3 -11 -1 -18 -10z"/>
<path d="M707 3308 c12 -13 26 -34 30 -46 9 -22 10 -23 24 -6 8 10 9 15 2 11
-8 -5 -18 3 -27 21 -8 16 -23 33 -33 36 -14 6 -13 3 4 -16z"/>
<path d="M786 3244 c-4 -9 -4 -19 -1 -22 2 -3 7 3 11 12 4 9 4 19 1 22 -2 3
-7 -3 -11 -12z"/>
<path d="M1151 3214 c0 -11 3 -14 6 -6 3 7 2 16 -1 19 -3 4 -6 -2 -5 -13z"/>
<path d="M2107 4173 c-4 -3 -7 -11 -7 -17 0 -6 5 -5 12 2 6 6 9 14 7 17 -3 3
-9 2 -12 -2z"/>
<path d="M2030 4033 c0 -13 29 -38 35 -31 3 3 -4 13 -15 23 -11 10 -20 13 -20
8z"/>
<path d="M2084 3889 c-2 -4 4 -13 15 -18 23 -13 81 -15 81 -3 0 11 -90 30 -96
21z"/>
<path d="M3095 4150 c3 -5 8 -10 11 -10 2 0 4 5 4 10 0 6 -5 10 -11 10 -5 0
-7 -4 -4 -10z"/>
<path d="M3156 4097 c3 -10 9 -15 12 -12 3 3 0 11 -7 18 -10 9 -11 8 -5 -6z"/>
<path d="M2891 3914 c0 -11 3 -14 6 -6 3 7 2 16 -1 19 -3 4 -6 -2 -5 -13z"/>
<path d="M2970 3856 c0 -2 8 -10 18 -17 15 -13 16 -12 3 4 -13 16 -21 21 -21
13z"/>
<path d="M2470 4030 c20 -13 53 -13 45 0 -3 6 -18 10 -33 10 -21 0 -24 -2 -12
-10z"/>
<path d="M3282 3901 c-6 -17 -9 -31 -6 -31 7 0 25 52 20 57 -2 2 -8 -10 -14
-26z"/>
<path d="M1312 3798 c-34 -68 -66 -181 -77 -271 -4 -32 -12 -57 -17 -57 -6 0
-6 -6 1 -14 8 -10 10 -30 6 -60 -5 -31 -4 -46 4 -46 6 0 10 3 10 8 -1 4 -1 28
0 54 1 43 3 47 29 51 l27 4 -27 2 c-33 1 -32 -2 -14 94 18 95 49 194 76 247
12 23 20 44 17 46 -2 2 -18 -24 -35 -58z"/>
<path d="M1275 3580 c-3 -5 -2 -10 4 -10 5 0 13 5 16 10 3 6 2 10 -4 10 -5 0
-13 -4 -16 -10z"/>
<path d="M1220 3328 c0 -5 14 -8 30 -8 17 0 30 4 30 10 0 5 -13 8 -30 7 -16
-1 -30 -5 -30 -9z"/>
<path d="M1233 3250 c0 -25 2 -35 4 -22 2 12 2 32 0 45 -2 12 -4 2 -4 -23z"/>
<path d="M2732 3680 c0 -19 2 -27 5 -17 2 9 2 25 0 35 -3 9 -5 1 -5 -18z"/>
<path d="M2743 3615 c-9 -24 1 -27 15 -5 8 13 8 20 2 20 -6 0 -13 -7 -17 -15z"/>
<path d="M2930 3796 c0 -2 7 -7 16 -10 8 -3 12 -2 9 4 -6 10 -25 14 -25 6z"/>
<path d="M2967 3749 c4 -13 8 -18 11 -10 2 7 -1 18 -6 23 -8 8 -9 4 -5 -13z"/>
<path d="M3505 3571 c6 -5 37 -13 70 -15 56 -5 57 -5 13 3 -25 5 -57 12 -70
16 -16 5 -20 4 -13 -4z"/>
<path d="M3675 3540 c17 -4 46 -8 65 -8 28 -1 31 1 15 8 -11 5 -40 8 -65 8
-41 0 -42 -1 -15 -8z"/>
<path d="M3505 3531 c26 -11 185 -34 192 -28 6 6 -83 24 -157 31 -35 4 -48 3
-35 -3z"/>
<path d="M1513 3527 c-10 -13 -25 -26 -33 -30 -9 -3 -10 -6 -3 -6 7 -1 -10
-45 -43 -108 -64 -126 -94 -237 -92 -338 l1 -70 7 80 c12 131 77 334 102 319
7 -4 8 -2 4 5 -7 10 8 42 66 139 23 37 18 42 -9 9z"/>
<path d="M1378 3363 c7 -3 16 -2 19 1 4 3 -2 6 -13 5 -11 0 -14 -3 -6 -6z"/>
<path d="M3851 3525 c-33 -37 -36 -45 -23 -45 5 0 23 18 41 40 39 49 25 53
-18 5z"/>
<path d="M3872 3478 c-14 -14 -16 -44 -3 -52 15 -10 55 29 48 47 -7 20 -28 22
-45 5z m25 -25 c-3 -3 -11 -2 -17 2 -9 6 -9 10 1 16 14 8 27 -7 16 -18z"/>
<path d="M2701 3454 c0 -11 3 -14 6 -6 3 7 2 16 -1 19 -3 4 -6 -2 -5 -13z"/>
<path d="M738 3150 c-3 -16 -1 -30 4 -30 4 0 8 14 8 30 0 17 -2 30 -4 30 -2 0
-6 -13 -8 -30z"/>
<path d="M823 3125 c-3 -9 -3 -18 -1 -21 3 -3 8 4 11 16 6 23 -1 27 -10 5z"/>
<path d="M3325 2939 c-4 -5 0 -11 7 -13 7 -2 29 -9 48 -15 30 -10 37 -9 54 9
11 10 16 23 12 27 -4 4 -14 0 -21 -11 -8 -10 -19 -15 -25 -11 -23 14 -70 23
-75 14z"/>
<path d="M3103 2933 c9 -2 23 -2 30 0 6 3 -1 5 -18 5 -16 0 -22 -2 -12 -5z"/>
<path d="M3168 2933 c7 -3 16 -2 19 1 4 3 -2 6 -13 5 -11 0 -14 -3 -6 -6z"/>
<path d="M875 2961 c-8 -14 16 -61 32 -61 18 0 16 35 -3 54 -18 19 -21 19 -29
7z"/>
<path d="M1075 2910 c17 -4 39 -8 50 -8 20 -1 20 -1 0 8 -11 5 -33 8 -50 8
l-30 0 30 -8z"/>
<path d="M940 2902 c0 -5 18 -14 40 -20 22 -5 40 -6 40 -2 0 8 -8 11 -62 26
-10 3 -18 1 -18 -4z"/>
<path d="M3205 2490 c-4 -6 11 -7 42 -3 63 8 67 13 10 13 -25 0 -49 -4 -52
-10z"/>
<path d="M3211 2714 c0 -11 3 -14 6 -6 3 7 2 16 -1 19 -3 4 -6 -2 -5 -13z"/>
<path d="M3201 2674 c0 -11 3 -14 6 -6 3 7 2 16 -1 19 -3 4 -6 -2 -5 -13z"/>
<path d="M3191 2634 c0 -11 3 -14 6 -6 3 7 2 16 -1 19 -3 4 -6 -2 -5 -13z"/>
<path d="M2910 2710 c0 -5 5 -10 11 -10 5 0 7 5 4 10 -3 6 -8 10 -11 10 -2 0
-4 -4 -4 -10z"/>
<path d="M1490 2520 c-23 -7 -23 -8 -3 -9 12 -1 25 4 28 9 3 6 5 10 3 9 -2 -1
-14 -5 -28 -9z"/>
<path d="M3150 2299 c23 -15 88 -49 115 -59 49 -19 24 0 -46 35 -70 34 -99 45
-69 24z"/>
<path d="M2150 1280 c-29 -6 -24 -7 30 -8 45 0 59 2 45 8 -23 10 -28 10 -75 0z"/>
<path d="M2043 1273 c15 -2 37 -2 50 0 12 2 0 4 -28 4 -27 0 -38 -2 -22 -4z"/>
<path d="M2268 1273 c12 -2 30 -2 40 0 9 3 -1 5 -23 4 -22 0 -30 -2 -17 -4z"/>
<path d="M2587 1268 c10 -3 70 -6 133 -6 138 1 119 6 -38 10 -62 2 -104 0 -95
-4z"/>
<path d="M2848 1253 c7 -3 16 -2 19 1 4 3 -2 6 -13 5 -11 0 -14 -3 -6 -6z"/>
<path d="M2882 1255 c7 -8 138 -8 145 -1 4 3 -29 6 -72 6 -43 0 -76 -2 -73 -5z"/>
<path d="M3050 1250 c0 -5 5 -10 11 -10 5 0 7 5 4 10 -3 6 -8 10 -11 10 -2 0
-4 -4 -4 -10z"/>
<path d="M2628 1138 c5 -5 61 -11 123 -13 86 -3 102 -2 64 4 -81 14 -198 20
-187 9z"/>
<path d="M1070 1021 c8 -5 80 -37 160 -71 79 -34 157 -68 172 -76 15 -8 28
-11 28 -6 0 8 -128 72 -144 72 -4 0 -51 20 -105 45 -54 25 -104 45 -112 45
-11 -1 -11 -2 1 -9z"/>
<path d="M1608 903 c6 -2 18 -2 25 0 6 3 1 5 -13 5 -14 0 -19 -2 -12 -5z"/>
<path d="M1510 893 c-34 -5 -54 -13 -49 -17 2 -3 31 2 64 9 55 12 44 18 -15 8z"/>
<path d="M1704 1110 c-62 -7 -84 -15 -84 -30 0 -5 13 -5 29 1 15 5 32 9 37 8
5 -2 33 1 63 5 36 6 49 11 40 17 -8 5 -16 8 -19 7 -3 0 -32 -4 -66 -8z"/>
<path d="M3221 890 c0 -8 6 -26 15 -40 l15 -25 -7 25 c-3 14 -10 32 -15 40 -7
13 -8 13 -8 0z"/>
<path d="M4035 4825 c17 -14 33 -25 36 -25 13 0 43 -55 50 -90 l7 -35 1 35 c1
42 -24 83 -72 116 -46 31 -61 30 -22 -1z"/>
<path d="M3317 4815 c-51 -19 -114 -70 -133 -108 -25 -47 -18 -147 9 -147 8 0
12 22 12 65 0 63 1 65 45 107 26 25 68 51 98 62 29 10 52 22 52 27 0 13 -39
10 -83 -6z"/>
<path d="M4032 4783 c21 -21 44 -54 52 -73 9 -20 15 -27 16 -17 0 10 -5 28
-11 40 -15 29 -70 87 -83 87 -6 0 6 -17 26 -37z"/>
<path d="M280 4806 c0 -12 65 -106 73 -106 11 0 -32 76 -55 97 -10 9 -18 13
-18 9z"/>
<path d="M715 4758 c-27 -14 -85 -70 -85 -81 0 -5 19 8 43 30 24 22 50 42 58
45 8 3 12 8 9 11 -3 3 -14 1 -25 -5z"/>
<path d="M2820 4766 c0 -11 30 -66 36 -66 2 0 -3 15 -12 33 -19 36 -24 44 -24
33z"/>
<path d="M2770 4730 c0 -5 5 -10 11 -10 5 0 7 5 4 10 -3 6 -8 10 -11 10 -2 0
-4 -4 -4 -10z"/>
<path d="M3950 4701 c0 -6 5 -13 11 -17 6 -3 19 -25 29 -48 18 -38 18 -42 2
-60 -16 -18 -16 -18 6 -7 27 14 23 46 -14 104 -24 37 -34 45 -34 28z"/>
<path d="M1890 4665 c13 -14 25 -25 27 -25 9 0 1 20 -13 34 -26 26 -39 18 -14
-9z"/>
<path d="M3920 4671 c0 -5 7 -12 16 -15 8 -3 13 -10 9 -15 -3 -5 -1 -12 5 -16
6 -4 8 -10 6 -14 -3 -4 -1 -13 5 -21 7 -12 9 -11 9 6 0 11 -5 25 -12 32 -7 7
-9 12 -5 12 4 0 3 9 -3 20 -11 20 -30 27 -30 11z"/>
<path d="M413 4645 c-15 -13 -22 -25 -15 -25 7 0 15 7 19 16 3 8 12 13 19 10
7 -3 16 -1 19 4 13 21 57 9 92 -25 38 -37 53 -40 32 -7 -34 54 -119 68 -166
27z"/>
<path d="M4060 4648 c0 -8 7 -21 15 -28 19 -16 19 -1 0 24 -12 16 -15 17 -15
4z"/>
<path d="M788 4633 c6 -2 18 -2 25 0 6 3 1 5 -13 5 -14 0 -19 -2 -12 -5z"/>
<path d="M2911 4624 c0 -11 3 -14 6 -6 3 7 2 16 -1 19 -3 4 -6 -2 -5 -13z"/>
<path d="M4031 4630 c-1 -21 16 -46 26 -37 4 5 3 11 -3 15 -6 4 -14 14 -17 22
-5 13 -5 13 -6 0z"/>
<path d="M150 4621 c0 -5 25 -12 57 -16 31 -4 62 -9 70 -12 7 -3 13 -1 13 5 0
5 -28 15 -63 21 -77 13 -77 13 -77 2z"/>
<path d="M700 4610 c-45 -24 -18 -24 35 0 26 12 33 19 20 19 -11 0 -36 -8 -55
-19z"/>
<path d="M377 4576 c-5 -21 -6 -40 -3 -43 9 -10 18 24 14 54 -3 26 -4 25 -11
-11z"/>
<path d="M584 4545 c-1 -45 -21 -82 -47 -89 -12 -3 -18 -8 -14 -12 11 -11 57
25 67 52 12 30 13 84 2 84 -4 0 -7 -16 -8 -35z"/>
<path d="M1791 4534 c0 -11 3 -14 6 -6 3 7 2 16 -1 19 -3 4 -6 -2 -5 -13z"/>
<path d="M2047 4533 c-4 -3 -7 -11 -7 -17 0 -6 5 -5 12 2 6 6 9 14 7 17 -3 3
-9 2 -12 -2z"/>
<path d="M377 4501 c8 -32 50 -58 66 -41 9 10 9 11 -1 6 -7 -4 -24 6 -42 25
-25 28 -28 29 -23 10z"/>
<path d="M3543 4493 c-18 -9 -33 -20 -33 -25 0 -9 24 2 55 26 25 19 19 19 -22
-1z"/>
<path d="M210 4474 c-30 -8 -59 -20 -65 -26 -7 -8 -5 -9 8 -5 10 4 46 14 80
23 34 9 64 18 66 20 9 8 -36 2 -89 -12z"/>
<path d="M670 4473 c0 -5 35 -14 78 -20 42 -6 88 -14 102 -17 14 -4 8 0 -12 8
-20 8 -59 18 -85 21 -26 4 -56 9 -65 12 -10 2 -18 1 -18 -4z"/>
<path d="M2831 4445 c1 -16 5 -41 9 -55 7 -22 8 -20 9 15 0 22 -4 47 -9 55 -7
11 -9 8 -9 -15z"/>
<path d="M468 4443 c6 -2 18 -2 25 0 6 3 1 5 -13 5 -14 0 -19 -2 -12 -5z"/>
<path d="M3510 4440 c0 -5 7 -10 16 -10 8 0 12 5 9 10 -3 6 -10 10 -16 10 -5
0 -9 -4 -9 -10z"/>
<path d="M3475 4430 c-3 -6 1 -7 9 -4 18 7 21 14 7 14 -6 0 -13 -4 -16 -10z"/>
<path d="M2954 4389 c-17 -18 -22 -28 -12 -24 14 6 55 55 45 55 -2 0 -16 -14
-33 -31z"/>
<path d="M295 4366 c-27 -24 -48 -46 -45 -49 3 -3 30 17 60 44 30 27 51 49 45
49 -5 0 -32 -20 -60 -44z"/>
<path d="M606 4378 c8 -27 37 -69 59 -88 22 -19 18 4 -5 25 -11 10 -25 33 -32
51 -13 37 -34 47 -22 12z"/>
<path d="M3482 4383 c-7 -10 -10 -12 -6 -4 4 8 2 12 -5 10 -7 -3 -11 -7 -9
-11 2 -3 -6 -16 -17 -28 l-20 -22 35 21 c22 13 53 21 85 22 l50 1 -35 13 c-48
18 -63 18 -78 -2z"/>
<path d="M456 4363 c-17 -34 -32 -126 -17 -103 5 8 13 33 17 55 3 22 10 48 16
58 5 9 6 17 4 17 -3 0 -12 -12 -20 -27z"/>
<path d="M537 4324 c8 -25 17 -43 20 -41 7 7 -19 87 -28 87 -4 0 -1 -20 8 -46z"/>
<path d="M3495 4325 l-40 -14 45 6 c49 6 91 23 55 22 -11 0 -38 -7 -60 -14z"/>
<path d="M4153 4236 c-6 -8 -13 -29 -15 -47 l-4 -34 -17 35 c-12 26 -16 30
-17 14 0 -26 24 -59 38 -50 6 3 14 21 17 39 4 17 12 38 17 45 14 16 -4 15 -19
-2z"/>
<path d="M4181 4194 c-14 -49 -7 -56 9 -9 7 20 10 39 7 42 -3 3 -10 -12 -16
-33z"/>
<path d="M4232 4180 c0 -14 2 -19 5 -12 2 6 2 18 0 25 -3 6 -5 1 -5 -13z"/>
<path d="M4262 4170 c0 -14 2 -19 5 -12 2 6 2 18 0 25 -3 6 -5 1 -5 -13z"/>
<path d="M4027 4053 c11 -31 49 -82 76 -103 20 -16 31 -19 44 -11 15 8 12 12
-23 26 -28 11 -49 29 -69 60 -30 48 -38 56 -28 28z"/>
<path d="M4312 4004 c-24 -26 -55 -47 -72 -51 -33 -6 -35 -26 -5 -32 28 -5 78
25 93 57 16 33 32 72 29 71 -1 0 -21 -21 -45 -45z"/>
<path d="M3960 3989 c-22 -18 -22 -19 -3 -10 12 6 25 16 28 21 9 15 3 12 -25
-11z"/>
<path d="M4002 3987 c-22 -23 -22 -23 -2 -40 11 -9 20 -13 20 -7 0 5 -4 12
-10 15 -14 9 -12 25 3 24 6 0 22 -13 35 -30 21 -26 22 -29 6 -29 -10 0 6 -15
36 -33 53 -31 55 -34 61 -85 11 -86 19 -72 12 22 -5 76 -4 86 11 86 9 0 16 -6
17 -12 0 -7 2 -20 4 -28 1 -8 5 -46 9 -85 3 -38 12 -75 19 -83 11 -10 11 8 -1
100 -8 62 -15 113 -15 114 -1 1 -17 4 -36 8 -33 6 -33 5 -27 -24 3 -16 3 -30
1 -30 -6 0 -74 74 -101 111 l-21 29 -21 -23z"/>
<path d="M3945 3946 c-19 -14 -19 -16 14 -88 101 -221 105 -247 85 -567 -8
-130 -16 -242 -19 -248 -2 -7 2 -13 10 -13 10 0 15 12 16 38 0 20 2 48 4 62 2
14 9 106 15 205 17 248 5 322 -74 484 -40 82 -41 85 -25 75 8 -5 8 -1 0 14 -6
11 -8 28 -5 36 8 20 3 20 -21 2z"/>
<path d="M4489 3833 c-4 -345 -3 -506 3 -516 4 -7 8 129 8 301 0 171 -2 312
-5 312 -3 0 -6 -44 -6 -97z"/>
<path d="M4015 3827 c10 -15 20 -25 23 -22 3 3 -5 16 -17 28 l-23 22 17 -28z"/>
<path d="M4085 3743 c54 -90 75 -155 82 -260 4 -65 9 -90 15 -79 5 9 6 25 3
36 -4 11 -2 20 3 20 36 0 40 -267 8 -505 -20 -155 -27 -234 -17 -210 8 18 13
58 42 307 6 48 8 150 6 225 -4 135 -7 152 -63 359 -15 56 -58 126 -92 150 -18
13 -16 5 13 -43z"/>
<path d="M4177 3208 c-3 -111 -10 -174 -25 -228 -12 -41 -26 -132 -32 -201 -9
-110 -16 -158 -37 -270 -3 -16 0 -30 8 -34 7 -5 10 -4 5 3 -3 5 1 42 9 82 8
39 20 123 25 186 6 64 21 170 34 237 23 117 39 357 25 372 -4 3 -9 -63 -12
-147z"/>
<path d="M3338 3163 c6 -2 18 -2 25 0 6 3 1 5 -13 5 -14 0 -19 -2 -12 -5z"/>
<path d="M3927 3138 c-13 -18 -27 -41 -31 -51 -8 -24 3 -67 17 -67 6 0 8 3 5
6 -4 3 -1 20 7 37 7 18 10 38 8 45 -4 11 0 14 29 16 6 1 16 -14 23 -33 13 -40
41 -58 30 -20 -12 42 -40 93 -52 96 -6 2 -22 -11 -36 -29z"/>
<path d="M9 3058 c-8 -27 -4 -34 20 -33 20 0 30 -8 43 -34 28 -56 43 -67 74
-52 29 13 44 6 48 -25 2 -15 12 -19 47 -19 36 0 53 -7 84 -32 58 -48 73 -40
22 11 -46 47 -91 66 -110 47 -16 -16 -27 -13 -27 8 0 52 -45 71 -73 30 -16
-22 -21 -19 -31 26 -10 40 -44 75 -73 75 -13 0 -23 -1 -24 -2z"/>
<path d="M750 3020 c-27 -29 -28 -29 -59 -14 -48 24 -75 14 -97 -34 -1 -2 -17
6 -35 17 -62 38 -145 20 -121 -26 6 -10 23 -29 38 -43 l28 -25 -22 38 c-12 21
-20 43 -17 48 10 15 43 10 84 -11 39 -19 39 -19 64 0 30 24 52 25 89 6 24 -13
28 -12 54 15 15 16 36 32 47 35 16 5 17 8 6 15 -22 14 -29 11 -59 -21z"/>
<path d="M4026 2993 c-3 -16 -13 -77 -21 -138 -15 -105 -41 -225 -71 -325
l-14 -46 -57 3 c-159 8 -373 9 -373 1 0 -4 10 -8 23 -8 71 0 393 -13 396 -16
2 -1 -20 -51 -48 -110 -28 -59 -49 -109 -47 -112 8 -7 76 19 83 33 7 11 22 7
78 -20 39 -19 79 -34 89 -35 21 0 45 26 46 50 0 9 -6 6 -16 -8 -18 -26 -59
-27 -58 -2 1 33 17 105 30 136 8 18 14 44 13 56 -1 26 -45 -106 -54 -164 -4
-21 -9 -38 -11 -38 -3 0 -27 11 -55 25 l-50 26 -30 -22 c-17 -12 -32 -19 -35
-16 -3 3 11 37 30 76 40 78 52 112 89 246 35 126 53 224 73 393 6 47 -1 57
-10 15z"/>
<path d="M363 2944 c-7 -18 14 -94 26 -94 5 0 7 18 4 40 -5 37 -4 40 16 37 12
-2 27 -9 33 -15 27 -27 30 -10 3 18 -31 32 -72 40 -82 14z"/>
<path d="M1241 2883 c-27 -33 -19 -44 8 -12 16 19 23 22 37 14 14 -9 18 -33 4
-28 -3 1 -13 5 -22 8 -13 5 -18 2 -18 -8 0 -18 30 -30 54 -21 19 7 21 45 4 62
-19 19 -45 14 -67 -15z"/>
<path d="M10 2761 c13 -25 13 -208 0 -216 -5 -3 -10 -11 -10 -17 0 -6 9 -3 20
7 17 16 20 31 20 112 0 91 -10 133 -31 133 -6 0 -6 -7 1 -19z"/>
<path d="M4184 2570 c0 -85 2 -120 3 -77 2 42 2 112 0 155 -1 42 -3 7 -3 -78z"/>
<path d="M929 2485 c-3 -2 -68 -5 -144 -5 -204 -2 -775 -27 -782 -34 -4 -3 -4
-8 -2 -10 2 -2 157 2 344 10 187 7 397 14 467 14 70 0 129 4 133 9 5 10 -9 24
-16 16z"/>
<path d="M3625 2440 c-19 -21 -19 -21 6 -15 21 5 31 1 48 -21 12 -15 24 -25
27 -22 3 3 -10 22 -28 42 l-34 37 -19 -21z"/>
<path d="M170 2415 c-2 -11 0 -52 3 -75 2 -8 8 -23 13 -34 10 -16 14 -13 33
28 13 25 20 50 16 56 -10 16 -25 1 -25 -25 0 -34 -20 -42 -21 -8 0 29 -16 76
-19 58z"/>
<path d="M3585 2398 c-17 -52 0 -106 36 -111 8 -2 19 -6 26 -10 14 -9 63 9 63
23 0 5 -7 10 -15 10 -8 0 -15 -4 -15 -8 0 -12 -62 -2 -75 12 -14 15 -18 68 -6
75 5 4 6 12 2 20 -6 9 -10 6 -16 -11z"/>
<path d="M3724 2405 c-4 -8 -4 -25 -1 -37 4 -12 1 -28 -5 -35 -8 -10 -6 -13 6
-13 9 0 16 -4 16 -10 0 -17 17 -11 23 8 2 9 8 26 13 37 7 18 6 18 -9 6 -15
-12 -17 -10 -17 17 0 34 -17 52 -26 27z"/>
<path d="M272 2364 c-40 -34 -52 -54 -34 -54 9 0 92 78 92 86 0 12 -21 0 -58
-32z"/>
<path d="M134 2348 c4 -24 12 -47 18 -53 8 -7 9 0 4 24 -3 18 -6 42 -6 52 0
11 -5 19 -11 19 -8 0 -9 -14 -5 -42z"/>
<path d="M3896 2179 c-4 -23 -4 -44 -1 -47 3 -3 5 0 5 7 0 7 4 10 9 7 9 -6 7
62 -2 70 -2 3 -7 -14 -11 -37z"/>
<path d="M3467 2176 c18 -8 77 -24 130 -35 144 -29 154 -30 150 -17 -3 6 -10
10 -16 8 -10 -2 -172 30 -271 53 -18 5 -17 2 7 -9z"/>
<path d="M3860 2173 c0 -48 14 -93 27 -93 11 0 13 6 8 23 -4 12 -9 37 -12 55
-5 33 -23 45 -23 15z"/>
<path d="M3939 2143 c-6 -15 -16 -31 -22 -35 -8 -5 -6 -8 6 -8 12 0 16 -5 11
-12 -5 -9 -4 -10 3 -3 12 11 27 85 18 85 -3 0 -10 -12 -16 -27z"/>
<path d="M3773 2113 c9 -2 23 -2 30 0 6 3 -1 5 -18 5 -16 0 -22 -2 -12 -5z"/>
<path d="M3820 2110 c0 -5 7 -10 16 -10 8 0 12 5 9 10 -3 6 -10 10 -16 10 -5
0 -9 -4 -9 -10z"/>
<path d="M285 2053 c7 -56 22 -93 39 -93 11 0 -1 92 -16 125 -20 44 -31 28
-23 -32z"/>
<path d="M350 2030 c0 -56 3 -70 15 -70 8 0 15 8 15 18 0 11 14 38 30 60 17
23 30 45 30 49 0 12 -52 -41 -60 -62 -7 -15 -9 -7 -9 28 -1 26 -5 47 -11 47
-6 0 -10 -30 -10 -70z"/>
<path d="M3587 2038 c8 -63 22 -82 23 -31 0 45 -8 73 -20 73 -5 0 -6 -19 -3
-42z"/>
<path d="M3640 2039 c-7 -11 -9 -27 -6 -36 6 -15 -15 -43 -32 -43 -5 0 -16 10
-25 23 -8 12 -18 19 -22 15 -9 -9 20 -51 37 -54 7 -1 19 -3 26 -5 8 -3 22 19
37 59 19 49 21 62 10 62 -8 0 -19 -9 -25 -21z"/>
<path d="M422 2006 c-18 -21 -30 -42 -26 -47 3 -6 13 0 22 13 8 13 21 28 30
35 8 6 12 17 10 24 -2 6 -18 -5 -36 -25z"/>
<path d="M986 2023 c-13 -33 -20 -153 -8 -153 5 0 13 36 17 81 7 80 4 106 -9
72z"/>
<path d="M3691 1966 c-21 -33 -30 -70 -13 -50 22 24 53 84 44 84 -6 0 -20 -15
-31 -34z"/>
<path d="M1052 1973 c-15 -28 -24 -83 -15 -83 5 0 16 23 25 50 16 48 9 69 -10
33z"/>
<path d="M4210 1906 c-11 -29 -16 -153 -6 -163 8 -8 35 27 36 45 0 7 -5 10
-11 7 -7 -5 -8 14 -3 64 7 72 1 90 -16 47z"/>
<path d="M910 1908 c0 -18 18 -34 28 -24 3 4 -2 14 -11 23 -16 16 -17 16 -17
1z"/>
<path d="M4133 1856 c15 -39 27 -97 22 -106 -3 -5 -1 -11 4 -14 5 -4 12 3 16
14 8 24 -22 120 -37 120 -6 0 -8 -6 -5 -14z"/>
<path d="M4264 1810 c-4 -22 -10 -40 -15 -40 -5 0 -9 -4 -9 -10 0 -25 29 -7
35 23 4 17 9 40 11 50 3 9 1 17 -5 17 -6 0 -14 -18 -17 -40z"/>
<path d="M4309 1815 c-1 -8 -2 -21 -3 -27 -1 -7 -5 -16 -11 -20 -6 -5 -6 -11
1 -18 14 -14 19 -6 28 43 4 23 3 37 -4 37 -5 0 -11 -7 -11 -15z"/>
<path d="M3553 1620 c-4 -14 -11 -19 -23 -15 -23 7 -37 -13 -16 -21 9 -4 23
-1 31 6 13 10 24 10 57 1 28 -9 44 -9 51 -2 13 13 -15 25 -43 18 -13 -3 -21 1
-25 14 -8 25 -25 24 -32 -1z"/>
<path d="M727 1580 c4 -14 0 -20 -11 -20 -10 0 -13 6 -10 15 4 8 1 15 -5 15
-6 0 -11 -11 -11 -25 0 -17 -9 -29 -31 -41 -25 -12 -29 -18 -18 -25 10 -6 15
-4 17 7 3 10 10 13 20 9 10 -4 25 -10 35 -12 12 -4 16 -11 11 -26 -5 -17 -4
-18 9 -6 8 8 13 17 10 22 -2 4 3 14 12 23 14 15 14 18 0 33 -8 10 -15 23 -15
29 0 6 -4 13 -9 16 -5 4 -7 -3 -4 -14z m18 -39 c8 -15 -35 -35 -47 -23 -6 6
-7 15 -4 21 9 14 43 14 51 2z"/>
<path d="M3543 1568 c1 -8 -7 -12 -20 -10 -12 2 -24 -2 -28 -7 -8 -15 42 -26
58 -13 28 24 39 -3 35 -82 -2 -42 0 -76 3 -76 11 0 29 61 25 84 -3 11 -7 34
-11 49 -6 28 -5 28 31 21 29 -5 36 -4 32 7 -3 8 -14 15 -26 17 -12 2 -22 8
-22 13 0 5 -4 9 -10 9 -5 0 -9 -3 -9 -7 3 -21 -3 -23 -23 -9 -27 19 -39 20
-35 4z"/>
<path d="M790 1555 c-10 -12 -10 -15 4 -15 9 0 16 7 16 15 0 8 -2 15 -4 15 -2
0 -9 -7 -16 -15z"/>
<path d="M630 1550 c0 -5 9 -10 19 -10 11 0 23 5 26 10 4 6 -5 10 -19 10 -14
0 -26 -4 -26 -10z"/>
<path d="M773 1515 c0 -14 26 -30 35 -20 6 5 -17 35 -28 35 -3 0 -7 -7 -7 -15z"/>
<path d="M666 1472 c-9 -28 3 -52 31 -63 17 -6 23 -14 19 -27 -13 -39 -23
-112 -16 -112 4 0 13 29 20 65 10 51 16 65 30 65 30 0 42 24 29 56 l-11 29
-15 -22 c-20 -30 -37 -29 -61 2 -19 24 -21 24 -26 7z m78 -37 c10 10 17 12 21
4 8 -12 6 -15 -21 -23 -14 -4 -29 0 -45 15 l-24 21 27 -16 c24 -14 29 -14 42
-1z"/>
<path d="M3450 1467 c0 -16 34 -97 41 -97 9 0 1 55 -13 83 -7 14 -28 25 -28
14z"/>
<path d="M3516 1454 c-10 -25 -7 -74 4 -74 6 0 10 13 10 29 0 16 3 36 6 45 3
9 2 16 -4 16 -5 0 -13 -7 -16 -16z"/>
<path d="M3547 1423 c-10 -10 -8 -45 2 -39 11 7 21 46 12 46 -4 0 -11 -3 -14
-7z"/>
<path d="M4320 1363 c0 -24 22 -83 31 -83 10 0 7 16 -12 68 -8 21 -19 30 -19
15z"/>
<path d="M4391 1329 c-7 -21 -8 -36 -2 -42 6 -6 12 4 17 27 8 48 0 56 -15 15z"/>
<path d="M3809 1319 c-10 -6 -8 -9 11 -9 l24 0 -22 -16 c-12 -8 -22 -24 -22
-35 0 -10 -4 -19 -10 -19 -5 0 -10 -12 -9 -27 l1 -28 10 28 c9 25 13 27 53 23
24 -2 49 -7 56 -11 7 -5 10 -3 7 6 -3 8 -12 14 -20 13 -7 -1 -15 7 -15 17 -1
12 3 16 14 12 11 -4 14 -2 11 8 -3 8 -14 13 -26 11 -14 -2 -22 2 -22 11 0 19
-23 28 -41 16z m45 -46 c9 -23 -16 -36 -34 -17 -13 13 -13 16 0 24 21 14 27
12 34 -7z"/>
<path d="M3760 1290 c0 -5 7 -7 15 -4 8 4 15 8 15 10 0 2 -7 4 -15 4 -8 0 -15
-4 -15 -10z"/>
<path d="M1660 1268 c0 -10 9 -9 35 2 17 8 16 8 -7 7 -16 -1 -28 -5 -28 -9z"/>
<path d="M1460 1260 c0 -6 11 -8 28 -4 39 10 40 14 4 14 -18 0 -32 -5 -32 -10z"/>
<path d="M3758 1263 c7 -3 16 -2 19 1 4 3 -2 6 -13 5 -11 0 -14 -3 -6 -6z"/>
<path d="M1325 1253 c-11 -3 -24 -9 -29 -14 -5 -5 5 -4 24 1 51 15 55 25 5 13z"/>
<path d="M1000 1224 c-149 -20 -270 -41 -238 -43 14 0 86 8 160 19 73 11 145
20 161 20 15 0 27 5 27 10 0 6 -1 9 -2 9 -2 -1 -50 -7 -108 -15z"/>
<path d="M3231 1236 c3 -3 29 -8 59 -11 79 -8 266 -33 327 -43 29 -5 58 -5 65
-1 7 5 9 9 3 9 -5 0 -100 11 -209 25 -196 25 -254 29 -245 21z"/>
<path d="M3700 1226 c0 -32 23 -74 46 -85 33 -15 34 -14 34 9 0 20 -16 28 -22
10 -5 -15 -25 3 -33 30 -8 25 -8 25 14 6 17 -15 21 -16 21 -4 0 17 -31 48 -48
48 -7 0 -12 -6 -12 -14z"/>
<path d="M3812 1208 c-17 -17 -15 -33 3 -18 12 10 15 10 15 -3 0 -9 -8 -21
-17 -26 -17 -10 -17 -10 -1 -11 18 0 38 28 38 54 0 19 -21 21 -38 4z"/>
<path d="M670 1170 c0 -6 11 -8 28 -4 39 10 40 14 4 14 -18 0 -32 -5 -32 -10z"/>
<path d="M600 1165 c-8 -2 -32 -6 -52 -10 -21 -3 -38 -10 -38 -16 0 -6 7 -6
19 1 11 5 35 10 53 11 18 1 44 5 58 9 l25 8 -25 0 c-14 0 -32 -2 -40 -3z"/>
<path d="M3862 1155 c2 -3 38 -7 79 -9 65 -4 68 -4 24 4 -58 10 -111 12 -103
5z"/>
<path d="M458 1143 c-16 -2 -28 -9 -28 -14 0 -10 32 -4 60 12 16 9 14 9 -32 2z"/>
<path d="M331 1127 c-6 -8 -14 -28 -17 -45 -4 -18 -10 -32 -15 -32 -12 0 -11
-47 1 -55 5 -3 12 12 16 35 4 22 10 40 14 40 8 0 23 61 16 67 -2 2 -8 -3 -15
-10z"/>
<path d="M4016 1132 c-5 -9 41 -8 51 1 3 4 -5 7 -20 7 -14 0 -28 -4 -31 -8z"/>
<path d="M231 1070 c2 -47 5 -60 16 -56 7 3 13 1 13 -4 0 -6 4 -10 9 -10 8 0
-2 81 -14 113 -14 35 -26 15 -24 -43z"/>
<path d="M270 1121 c0 -6 5 -13 10 -16 6 -3 10 1 10 9 0 9 -4 16 -10 16 -5 0
-10 -4 -10 -9z"/>
<path d="M383 1123 c9 -2 23 -2 30 0 6 3 -1 5 -18 5 -16 0 -22 -2 -12 -5z"/>
<path d="M405 1100 c-3 -5 -1 -10 4 -10 6 0 11 5 11 10 0 6 -2 10 -4 10 -3 0
-8 -4 -11 -10z"/>
<path d="M3998 1074 c-3 -39 27 -107 46 -101 5 2 17 30 27 62 22 70 21 65 11
65 -10 0 -42 -65 -42 -85 0 -8 -4 -15 -8 -15 -5 0 -9 21 -10 46 0 60 -19 82
-24 28z"/>
<path d="M185 1085 c-5 -2 -50 -15 -98 -30 -49 -15 -86 -29 -84 -32 6 -6 188
47 202 59 9 8 0 10 -20 3z"/>
<path d="M363 1072 c-3 -12 -9 -22 -14 -22 -5 0 -9 -11 -9 -25 0 -14 4 -25 9
-25 10 0 33 82 25 89 -3 3 -7 -5 -11 -17z"/>
<path d="M670 1038 c0 -9 5 -20 11 -23 17 -11 18 -2 3 19 -12 17 -14 17 -14 4z"/>
<path d="M704 1034 c3 -8 6 -18 6 -20 0 -2 5 -4 10 -4 16 0 11 27 -6 34 -12 5
-15 2 -10 -10z"/>
<path d="M760 1026 c0 -9 5 -16 10 -16 6 0 10 4 10 9 0 6 -4 13 -10 16 -5 3
-10 -1 -10 -9z"/>
<path d="M4102 1028 c-13 -13 -16 -38 -6 -38 8 0 33 32 34 43 0 11 -15 8 -28
-5z"/>
<path d="M3960 1020 c0 -16 12 -40 20 -40 4 0 10 9 13 19 3 13 -1 21 -14 24
-11 3 -19 1 -19 -3z"/>
<path d="M3930 1000 c0 -5 5 -10 11 -10 5 0 7 5 4 10 -3 6 -8 10 -11 10 -2 0
-4 -4 -4 -10z"/>
</g>
</svg>
